<svg id="svg" version="1.1" width="400" height="379.3103448275862" viewBox="0 0 400 379.3103448275862" xmlns="http://www.w3.org/2000/svg" xmlns:xlink="http://www.w3.org/1999/xlink" ><g id="svgg"><path id="path0" d="M187.869 78.912 C 187.653 79.316,187.476 80.088,187.476 80.627 C 187.476 81.286,186.933 82.132,185.817 83.213 C 184.904 84.097,183.886 85.354,183.554 86.007 C 182.816 87.458,182.421 87.631,178.437 88.244 C 174.061 88.917,173.735 89.429,174.999 93.627 C 175.656 95.807,174.778 96.919,172.707 96.528 C 171.959 96.387,171.091 96.273,170.778 96.276 C 170.465 96.278,170.104 96.121,169.977 95.926 C 169.849 95.731,169.638 95.851,169.507 96.193 C 169.376 96.534,169.426 96.717,169.618 96.598 C 169.810 96.479,170.068 96.547,170.193 96.748 C 170.318 96.951,170.080 97.049,169.658 96.967 C 169.239 96.887,168.797 96.981,168.676 97.177 C 168.555 97.373,168.717 97.533,169.036 97.533 C 170.266 97.533,169.135 98.627,167.617 98.906 C 166.747 99.065,165.906 99.228,165.750 99.266 C 165.593 99.304,165.266 99.357,165.022 99.383 C 164.779 99.409,164.687 99.539,164.819 99.670 C 164.951 99.802,164.821 100.249,164.531 100.663 C 164.241 101.077,164.084 101.625,164.183 101.880 C 164.441 102.553,163.313 103.355,162.529 103.056 C 162.016 102.861,161.963 102.906,162.304 103.250 C 162.786 103.736,162.572 104.744,161.986 104.744 C 161.788 104.744,161.747 104.547,161.896 104.306 C 162.065 104.032,162.000 103.971,161.722 104.142 C 161.478 104.293,161.368 104.562,161.477 104.740 C 161.707 105.112,159.042 107.417,158.455 107.353 C 157.462 107.245,157.051 107.444,157.242 107.941 C 157.362 108.254,157.060 108.737,156.524 109.088 C 156.014 109.422,155.598 109.520,155.598 109.307 C 155.598 109.093,155.419 108.918,155.202 108.918 C 154.984 108.918,154.856 109.217,154.917 109.583 C 154.993 110.035,154.817 110.211,154.364 110.135 C 153.999 110.074,153.700 110.202,153.700 110.420 C 153.700 110.638,153.892 110.816,154.126 110.816 C 154.420 110.816,154.406 110.992,154.080 111.385 C 153.730 111.807,153.717 112.087,154.030 112.464 C 154.262 112.744,154.331 113.094,154.183 113.243 C 153.746 113.679,153.813 115.723,154.255 115.467 C 154.472 115.342,154.327 115.606,153.934 116.055 C 153.541 116.503,153.067 116.776,152.881 116.661 C 152.695 116.546,152.575 116.593,152.615 116.765 C 152.845 117.770,151.939 119.209,150.505 120.115 C 149.476 120.766,148.726 121.597,148.430 122.415 C 147.890 123.909,146.468 125.025,144.592 125.428 C 143.739 125.611,142.812 126.239,142.001 127.183 C 141.306 127.991,140.499 128.653,140.207 128.653 C 139.915 128.653,139.379 129.122,139.016 129.696 C 138.335 130.772,136.914 132.267,136.347 132.503 C 136.170 132.577,135.636 133.192,135.160 133.870 C 134.684 134.548,133.922 135.198,133.466 135.314 C 133.010 135.431,132.132 136.243,131.515 137.118 C 130.898 137.993,130.086 138.933,129.712 139.206 C 129.338 139.478,129.018 139.991,129.002 140.344 C 128.943 141.585,127.311 143.956,126.061 144.619 C 124.265 145.570,123.560 146.290,122.983 147.761 C 122.603 148.728,122.301 149.002,121.767 148.862 C 121.290 148.738,120.646 149.126,119.800 150.050 C 118.597 151.363,117.647 151.816,117.647 151.077 C 117.647 150.887,117.348 150.780,116.983 150.839 C 116.618 150.898,116.105 150.776,115.844 150.569 C 115.500 150.295,115.363 150.387,115.343 150.902 C 115.318 151.588,115.307 151.589,115.041 150.912 C 114.817 150.342,114.691 150.307,114.367 150.722 C 113.724 151.550,113.460 152.561,113.913 152.462 C 114.140 152.413,114.413 152.609,114.518 152.899 C 114.635 153.222,114.543 153.324,114.281 153.161 C 114.045 153.016,113.852 153.074,113.852 153.291 C 113.852 153.508,113.425 153.793,112.903 153.924 C 112.381 154.055,111.933 154.314,111.907 154.500 C 111.881 154.686,111.817 155.009,111.765 155.218 C 111.713 155.427,111.648 156.097,111.622 156.707 C 111.593 157.404,111.153 158.215,110.441 158.889 C 109.065 160.190,108.869 160.390,107.425 161.954 C 106.800 162.633,106.137 163.188,105.954 163.188 C 105.229 163.188,104.419 164.606,104.165 166.317 C 103.891 168.172,103.812 168.268,100.030 171.347 C 99.205 172.019,97.836 172.647,96.691 172.880 C 94.522 173.320,94.380 173.486,93.524 176.580 C 92.773 179.295,91.162 180.501,87.777 180.882 C 86.568 181.019,85.118 181.363,84.554 181.647 C 83.282 182.288,82.991 182.298,83.335 181.689 C 83.483 181.428,83.256 181.570,82.832 182.005 C 82.408 182.440,81.938 183.550,81.788 184.472 C 81.454 186.516,80.226 188.649,79.537 188.384 C 78.883 188.133,77.699 189.324,77.950 189.980 C 78.057 190.259,77.979 190.591,77.776 190.716 C 77.573 190.842,77.508 191.107,77.631 191.307 C 77.754 191.506,77.629 191.623,77.353 191.565 C 77.076 191.508,76.897 191.687,76.954 191.964 C 77.012 192.240,76.884 192.358,76.670 192.226 C 76.066 191.853,76.210 190.838,76.945 190.288 C 77.549 189.836,77.532 189.811,76.755 190.006 C 76.274 190.128,75.901 190.047,75.901 189.821 C 75.901 189.601,75.588 189.445,75.206 189.473 C 74.823 189.502,74.510 189.760,74.510 190.047 C 74.510 190.365,74.780 190.497,75.206 190.386 C 76.050 190.165,76.087 190.381,75.333 191.135 C 74.907 191.561,74.863 191.888,75.156 192.436 C 75.430 192.948,75.426 193.169,75.142 193.169 C 74.854 193.169,74.854 193.389,75.142 193.928 C 75.380 194.372,75.400 194.687,75.189 194.687 C 74.992 194.687,74.878 194.986,74.937 195.351 C 74.996 195.716,74.942 196.186,74.818 196.395 C 74.401 197.095,74.345 198.547,74.717 198.996 C 74.920 199.241,75.294 200.292,75.549 201.333 C 75.803 202.374,76.134 203.397,76.284 203.605 C 76.435 203.814,76.662 204.924,76.790 206.072 C 76.917 207.220,77.098 208.501,77.192 208.918 C 77.285 209.336,77.374 210.072,77.390 210.554 C 77.406 211.036,77.585 211.327,77.788 211.202 C 77.991 211.077,78.546 211.224,79.022 211.530 C 79.715 211.976,80.972 212.050,85.389 211.905 C 88.416 211.806,91.763 211.740,92.828 211.759 C 95.520 211.806,98.339 211.108,98.944 210.244 C 100.564 207.931,103.872 209.039,105.576 212.466 L 106.831 214.991 106.795 256.546 C 106.762 294.230,106.700 298.257,106.131 299.763 C 105.674 300.970,105.503 302.661,105.503 305.953 L 105.503 310.482 104.335 310.298 C 103.389 310.149,103.210 310.227,103.395 310.708 C 103.584 311.203,103.525 311.222,103.045 310.823 C 102.387 310.277,102.411 310.246,102.310 311.765 C 102.269 312.391,102.394 313.117,102.587 313.378 C 102.815 313.684,102.789 313.852,102.513 313.852 C 102.279 313.852,102.087 314.033,102.087 314.254 C 102.087 314.475,102.224 314.572,102.390 314.469 C 102.557 314.366,102.941 314.438,103.244 314.630 C 103.668 314.898,103.583 314.980,102.878 314.985 C 101.484 314.994,102.273 315.482,104.087 315.733 C 105.413 315.916,105.673 316.085,105.582 316.706 C 105.494 317.305,105.546 317.346,105.841 316.906 C 106.045 316.603,106.128 316.219,106.025 316.052 C 105.922 315.886,106.018 315.750,106.239 315.750 C 106.461 315.750,106.641 316.016,106.641 316.341 C 106.641 316.689,106.837 316.834,107.116 316.693 C 107.377 316.561,107.124 316.854,106.554 317.343 C 105.549 318.206,105.540 318.247,106.264 318.699 C 107.261 319.321,107.596 319.288,107.043 318.622 C 106.682 318.188,106.751 317.995,107.387 317.654 C 107.823 317.421,108.082 317.069,107.961 316.873 C 107.837 316.674,108.020 316.624,108.376 316.761 C 108.937 316.976,108.914 317.078,108.176 317.634 C 107.426 318.200,107.402 318.315,107.940 318.761 C 108.341 319.094,108.539 319.117,108.539 318.832 C 108.539 318.598,108.325 318.403,108.065 318.400 C 107.748 318.396,107.780 318.272,108.159 318.027 C 108.472 317.824,108.985 317.670,109.298 317.683 C 109.686 317.699,109.716 317.768,109.393 317.898 C 108.269 318.352,108.899 319.132,110.062 318.727 C 110.690 318.508,111.459 318.426,111.769 318.545 C 112.099 318.671,112.334 318.547,112.334 318.245 C 112.334 317.853,113.401 317.673,116.793 317.493 C 119.929 317.327,262.179 317.251,286.148 317.402 C 286.879 317.407,287.599 317.592,287.748 317.813 C 288.007 318.196,287.923 214.959,287.663 213.567 C 287.595 213.202,287.397 212.903,287.223 212.903 C 286.585 212.903,286.932 212.255,287.761 211.899 C 288.776 211.462,297.454 211.475,303.648 211.922 C 306.818 212.151,308.129 212.121,308.319 211.813 C 308.720 211.165,309.224 211.298,309.694 212.175 C 310.284 213.277,309.227 214.012,307.021 214.035 C 306.082 214.045,305.098 214.190,304.835 214.357 C 304.179 214.773,308.946 214.414,309.768 213.985 C 310.131 213.795,310.533 213.222,310.661 212.710 C 310.863 211.904,311.068 211.802,312.184 211.944 C 312.953 212.043,313.472 211.945,313.472 211.701 C 313.472 211.442,313.688 211.471,314.058 211.778 C 314.513 212.156,314.744 212.163,315.098 211.809 C 315.452 211.455,315.427 211.273,314.987 210.990 C 314.583 210.730,314.545 210.545,314.855 210.342 C 315.094 210.185,315.236 209.577,315.171 208.990 C 315.081 208.186,315.255 207.841,315.875 207.591 C 316.526 207.328,316.560 207.254,316.034 207.235 C 315.589 207.219,315.370 206.904,315.370 206.283 C 315.370 205.773,315.022 205.113,314.598 204.815 C 313.872 204.307,313.820 203.837,313.744 196.983 C 313.668 190.170,313.612 189.657,312.903 189.166 C 312.486 188.877,311.973 188.507,311.765 188.343 C 311.556 188.179,310.958 187.816,310.436 187.536 C 309.439 187.001,306.880 183.993,305.839 182.134 C 305.502 181.531,304.605 180.281,303.846 179.355 C 302.918 178.222,302.467 177.286,302.467 176.493 C 302.467 175.606,302.233 175.209,301.518 174.884 C 300.996 174.646,300.551 174.265,300.529 174.038 C 300.506 173.810,300.464 173.112,300.434 172.486 L 300.380 171.347 296.688 171.296 C 292.496 171.238,291.227 170.965,292.315 170.354 C 293.123 169.900,293.186 169.260,292.422 169.260 C 292.055 169.260,291.944 169.033,292.098 168.596 C 292.280 168.080,292.226 168.029,291.859 168.368 C 291.497 168.701,291.211 168.631,290.650 168.070 C 290.246 167.665,289.751 167.436,289.550 167.561 C 289.349 167.685,289.184 167.588,289.184 167.344 C 289.184 167.090,289.449 167.003,289.807 167.141 C 290.335 167.343,290.355 167.289,289.936 166.785 C 289.664 166.457,289.170 166.283,288.839 166.397 C 288.438 166.536,288.490 166.399,288.994 165.992 C 289.521 165.565,289.608 165.323,289.279 165.200 C 289.018 165.102,288.805 164.780,288.805 164.485 C 288.805 164.189,288.634 163.947,288.425 163.947 C 288.216 163.947,288.046 163.538,288.046 163.039 C 288.046 162.027,287.632 161.788,285.958 161.831 C 284.881 161.858,283.871 161.303,283.871 160.683 C 283.871 160.527,282.590 159.220,281.025 157.778 C 279.459 156.335,278.178 154.927,278.178 154.648 C 278.178 154.370,277.621 153.797,276.939 153.376 C 275.527 152.503,274.107 150.736,273.180 148.694 C 272.769 147.790,272.027 147.028,271.091 146.545 C 269.151 145.546,267.394 143.658,266.127 141.213 C 265.514 140.029,264.617 138.945,263.947 138.576 C 263.321 138.232,262.721 137.836,262.615 137.696 C 262.508 137.556,261.940 137.321,261.351 137.173 C 260.220 136.889,260.095 136.710,259.797 134.945 C 259.611 133.849,259.077 133.268,258.159 133.165 C 257.348 133.074,257.144 133.005,256.167 132.490 C 255.093 131.924,253.131 129.877,253.131 129.323 C 253.131 127.958,251.813 126.357,250.370 125.968 C 249.262 125.670,248.182 124.878,246.521 123.146 C 243.974 120.491,243.726 120.386,239.088 120.001 L 235.863 119.734 236.004 115.655 C 236.083 113.360,235.994 111.575,235.800 111.575 C 235.611 111.575,235.430 111.233,235.398 110.816 C 235.367 110.398,235.465 110.057,235.616 110.057 C 235.768 110.057,235.919 109.673,235.951 109.203 C 236.004 108.452,235.966 108.429,235.634 109.013 C 235.166 109.837,234.535 109.879,234.535 109.086 C 234.535 108.720,234.716 108.598,235.009 108.767 C 235.285 108.926,235.351 108.895,235.168 108.695 C 234.994 108.505,234.695 108.328,234.503 108.302 C 234.312 108.276,234.070 108.212,233.966 108.159 C 233.784 108.069,233.284 107.928,232.781 107.827 C 232.651 107.801,232.779 107.491,233.065 107.138 C 233.352 106.785,233.416 106.598,233.207 106.722 C 232.998 106.847,232.789 106.538,232.742 106.036 C 232.695 105.534,232.618 104.696,232.571 104.175 C 232.485 103.213,231.901 102.828,231.852 103.700 C 231.837 103.961,231.678 103.833,231.499 103.416 C 231.320 102.998,231.161 102.842,231.146 103.068 C 231.114 103.558,229.981 103.629,229.981 103.140 C 229.981 102.954,229.807 102.909,229.595 103.040 C 229.383 103.171,229.308 103.437,229.428 103.632 C 229.553 103.835,228.682 103.985,227.381 103.985 C 225.162 103.985,223.150 102.708,223.150 101.299 C 223.150 101.106,222.921 100.949,222.642 100.949 C 222.362 100.949,221.365 100.138,220.426 99.146 C 219.488 98.155,218.265 96.941,217.709 96.450 C 216.848 95.688,216.698 95.251,216.698 93.489 C 216.698 91.506,216.647 91.401,215.436 90.895 C 213.650 90.149,210.314 87.043,209.687 85.543 C 209.318 84.661,208.658 84.043,207.505 83.501 C 205.899 82.746,204.554 81.127,204.554 79.950 C 204.554 78.348,203.716 78.178,195.812 78.178 C 188.736 78.178,188.237 78.224,187.869 78.912 M172.513 86.365 C 172.185 86.693,171.922 87.163,171.928 87.409 C 171.934 87.655,172.111 87.562,172.320 87.204 C 172.529 86.845,172.993 86.381,173.352 86.172 C 173.710 85.963,173.803 85.786,173.557 85.780 C 173.311 85.774,172.841 86.037,172.513 86.365 M201.941 107.875 C 201.965 109.388,201.955 110.925,201.917 111.290 C 201.858 111.879,202.241 111.954,205.289 111.954 L 208.729 111.954 208.772 114.896 C 208.797 116.513,208.839 118.089,208.867 118.397 C 208.901 118.766,209.431 118.997,210.417 119.074 C 212.234 119.214,212.268 119.244,212.228 120.678 C 212.210 121.307,212.354 121.840,212.549 121.862 C 213.948 122.023,215.541 121.863,216.509 121.464 C 217.683 120.980,222.009 120.885,224.198 121.296 C 225.980 121.630,227.597 123.288,227.885 125.077 C 228.017 125.896,228.286 126.862,228.484 127.224 C 229.060 128.283,228.893 130.656,228.164 131.761 C 227.766 132.365,227.520 133.372,227.563 134.228 C 227.662 136.220,227.668 136.249,227.989 136.198 C 229.326 135.987,229.602 136.286,229.602 137.951 L 229.602 139.658 231.309 139.658 L 233.017 139.658 233.017 141.292 L 233.017 142.926 234.619 143.020 C 236.564 143.135,236.456 143.030,236.530 144.877 L 236.590 146.390 239.822 146.461 C 243.685 146.546,243.170 146.013,243.328 150.095 C 243.472 153.794,243.294 153.538,245.804 153.660 C 246.503 153.694,246.654 153.957,246.752 155.313 C 246.869 156.918,246.877 156.927,248.482 157.043 C 249.386 157.108,250.110 157.358,250.130 157.612 C 250.149 157.861,250.192 158.577,250.225 159.203 L 250.285 160.342 253.490 160.448 C 257.330 160.575,256.846 160.092,256.993 163.947 L 257.116 167.165 258.811 167.283 C 260.854 167.425,260.661 167.241,260.773 169.151 C 260.851 170.470,260.994 170.722,261.648 170.699 C 264.043 170.613,264.137 170.680,264.137 172.486 C 264.137 173.425,264.265 174.173,264.421 174.149 C 266.699 173.789,267.552 174.204,267.552 175.671 C 267.552 177.273,267.952 177.609,269.860 177.609 C 270.917 177.609,271.403 179.408,271.013 181.879 C 270.988 182.035,271.139 182.163,271.347 182.163 C 271.556 182.163,271.727 182.035,271.728 181.879 C 271.732 180.389,279.439 181.703,280.284 183.336 C 283.074 188.733,278.478 192.229,272.523 189.238 C 271.395 188.672,269.888 188.235,269.060 188.235 L 267.594 188.235 267.478 190.038 L 267.362 191.841 265.747 191.760 L 264.131 191.680 264.139 243.216 L 264.147 294.753 265.723 294.814 C 268.022 294.904,268.018 295.256,265.718 295.256 L 263.757 295.256 263.757 296.905 C 263.757 298.337,263.548 298.760,262.171 300.124 L 260.585 301.694 259.420 300.814 C 256.411 298.542,259.777 298.661,198.779 298.669 L 143.074 298.677 143.074 296.951 L 143.074 295.226 139.658 295.288 L 136.243 295.350 136.243 297.011 L 136.243 298.672 132.827 298.672 C 129.277 298.672,129.268 298.667,129.336 296.908 C 129.368 296.101,128.906 295.812,126.755 295.289 C 126.233 295.163,125.806 294.804,125.806 294.493 C 125.806 294.182,125.593 293.702,125.332 293.426 C 125.071 293.151,124.858 292.693,124.858 292.410 C 124.858 292.127,124.374 291.499,123.782 291.014 C 121.079 288.800,121.577 284.250,124.764 282.023 L 126.000 281.160 125.903 239.916 L 125.806 198.672 124.207 198.556 L 122.608 198.440 122.499 194.761 L 122.391 191.082 120.845 191.046 C 119.995 191.027,118.429 191.122,117.366 191.259 C 113.786 191.718,110.816 189.357,110.816 186.052 C 110.816 185.190,110.992 184.376,111.208 184.243 C 111.787 183.885,112.989 181.050,113.274 179.369 C 113.411 178.563,113.931 177.496,114.429 176.997 C 115.347 176.080,115.709 176.014,120.304 175.937 C 122.167 175.905,122.404 175.810,122.512 175.047 C 122.628 174.235,122.797 174.194,126.023 174.194 L 129.412 174.194 129.412 170.800 L 129.412 167.406 131.025 167.289 C 132.626 167.174,132.638 167.161,132.753 165.581 C 132.868 164.005,132.885 163.987,134.455 163.873 C 136.007 163.760,136.044 163.725,136.154 162.258 C 136.292 160.440,136.152 160.580,137.970 160.443 C 139.440 160.332,139.471 160.299,139.585 158.723 C 139.708 157.031,139.905 156.911,142.244 157.104 C 142.784 157.149,143.095 156.983,143.053 156.672 C 142.782 154.677,143.093 153.700,144.000 153.700 C 145.165 153.700,145.492 153.174,145.466 151.343 C 145.441 149.654,145.707 149.425,148.008 149.156 C 149.608 148.969,149.723 148.879,149.834 147.723 C 149.942 146.607,150.071 146.490,151.195 146.490 C 152.385 146.490,152.440 146.425,152.498 144.943 C 152.584 142.756,153.199 142.055,155.028 142.061 C 156.457 142.066,156.554 141.995,156.665 140.862 C 156.782 139.686,156.828 139.658,158.685 139.658 C 160.424 139.658,160.580 139.586,160.516 138.805 C 160.321 136.395,160.424 136.243,162.239 136.243 L 163.947 136.243 163.947 134.557 L 163.947 132.871 165.560 132.754 C 167.221 132.634,167.227 132.626,167.319 130.477 C 167.358 129.555,167.519 129.444,168.975 129.339 C 170.578 129.223,170.589 129.212,170.704 127.624 L 170.820 126.025 174.120 125.916 L 177.419 125.806 177.529 122.486 L 177.639 119.165 181.056 119.165 C 183.570 119.165,184.457 119.040,184.412 118.691 C 184.094 116.239,184.383 115.750,186.148 115.750 L 187.856 115.750 187.856 112.144 L 187.856 108.539 189.564 108.539 L 191.271 108.539 191.271 106.831 L 191.271 105.123 196.584 105.123 L 201.898 105.123 201.941 107.875 M157.685 105.882 C 157.814 106.091,157.739 106.262,157.518 106.262 C 157.297 106.262,157.116 106.411,157.116 106.594 C 157.116 107.064,158.976 107.008,159.272 106.529 C 159.427 106.280,159.268 106.229,158.844 106.391 C 158.343 106.584,158.226 106.503,158.390 106.076 C 158.527 105.719,158.392 105.503,158.030 105.503 C 157.711 105.503,157.556 105.674,157.685 105.882 M234.613 106.167 C 234.676 106.538,234.516 106.789,234.250 106.736 C 233.707 106.628,233.606 107.250,234.116 107.566 C 234.303 107.681,234.560 107.503,234.688 107.169 C 234.821 106.823,235.164 106.656,235.487 106.780 C 236.168 107.041,236.229 106.589,235.598 105.958 C 234.941 105.301,234.484 105.398,234.613 106.167 M234.018 108.654 C 234.163 108.800,233.817 108.918,233.248 108.918 C 232.679 108.918,232.309 108.763,232.427 108.573 C 232.662 108.192,233.604 108.240,234.018 108.654 M236.053 110.573 C 236.053 110.957,238.778 113.531,238.975 113.333 C 239.222 113.087,236.815 110.447,236.338 110.440 C 236.181 110.438,236.053 110.498,236.053 110.573 M150.675 113.078 C 150.368 113.272,150.232 113.546,150.372 113.687 C 150.513 113.827,150.904 113.666,151.242 113.328 C 151.910 112.660,151.572 112.511,150.675 113.078 M128.349 128.349 C 127.633 129.065,127.817 129.480,128.653 129.032 C 129.070 128.809,129.412 128.461,129.412 128.260 C 129.412 127.757,128.898 127.800,128.349 128.349 M172.477 139.134 C 173.043 139.700,173.040 139.805,172.445 140.463 C 171.622 141.372,172.208 141.374,173.389 140.465 L 174.292 139.771 173.399 139.145 C 172.254 138.343,171.679 138.336,172.477 139.134 M274.220 142.058 C 274.318 142.313,274.746 142.739,275.172 143.005 C 275.877 143.445,275.911 143.423,275.555 142.757 C 275.114 141.933,273.936 141.316,274.220 142.058 M162.840 145.886 L 161.981 146.801 162.774 147.594 C 163.712 148.532,163.952 148.554,165.621 147.857 C 167.509 147.067,167.564 146.608,165.873 145.745 C 163.968 144.773,163.882 144.777,162.840 145.886 M164.871 146.168 C 165.759 146.572,165.782 146.643,165.174 147.105 C 163.872 148.093,162.200 147.250,163.293 146.156 C 163.812 145.638,163.706 145.637,164.871 146.168 M116.359 147.469 C 116.003 148.398,116.080 148.490,116.698 147.872 C 117.343 147.227,117.426 146.869,116.929 146.869 C 116.742 146.869,116.486 147.139,116.359 147.469 M106.452 152.340 C 105.825 152.842,105.411 153.352,105.531 153.472 C 105.650 153.593,106.237 153.182,106.835 152.558 C 108.147 151.189,107.995 151.102,106.452 152.340 M157.736 159.079 C 157.139 159.691,156.760 160.302,156.896 160.438 C 157.200 160.742,159.115 158.732,158.946 158.287 C 158.879 158.111,158.334 158.467,157.736 159.079 M97.533 159.393 C 97.081 159.845,96.812 160.316,96.936 160.440 C 97.060 160.564,97.519 160.283,97.955 159.814 C 98.989 158.704,98.606 158.320,97.533 159.393 M289.184 164.349 C 289.184 164.570,289.340 164.654,289.531 164.536 C 289.722 164.418,289.965 164.536,290.070 164.798 C 290.186 165.086,290.275 165.012,290.293 164.611 C 290.309 164.246,290.066 163.947,289.753 163.947 C 289.440 163.947,289.184 164.128,289.184 164.349 M290.702 164.481 C 290.702 164.588,291.420 165.407,292.297 166.302 C 293.173 167.196,293.771 167.616,293.625 167.235 C 293.478 166.853,293.359 166.490,293.359 166.428 C 293.359 166.365,292.761 165.858,292.030 165.301 C 291.300 164.744,290.702 164.375,290.702 164.481 M294.877 167.661 C 294.877 167.825,295.218 167.959,295.636 167.959 C 296.053 167.959,296.395 167.825,296.395 167.661 C 296.395 167.497,296.053 167.362,295.636 167.362 C 295.218 167.362,294.877 167.497,294.877 167.661 M121.935 182.922 C 121.935 184.070,122.007 184.540,122.093 183.966 C 122.180 183.392,122.180 182.453,122.093 181.879 C 122.007 181.305,121.935 181.774,121.935 182.922 M320.889 206.525 C 320.154 207.295,320.025 207.563,320.514 207.301 C 321.423 206.815,322.833 205.306,322.355 205.331 C 322.166 205.341,321.506 205.879,320.889 206.525 M293.658 215.462 C 294.971 215.536,297.020 215.535,298.212 215.460 C 299.404 215.385,298.330 215.324,295.825 215.325 C 293.321 215.326,292.345 215.387,293.658 215.462 M249.829 286.528 C 249.829 287.676,249.900 288.145,249.987 287.571 C 250.074 286.997,250.074 286.058,249.987 285.484 C 249.900 284.910,249.829 285.380,249.829 286.528 " stroke="none" fill="#fcfbfb" fill-rule="evenodd"></path><path id="path1" d="M175.786 74.630 C 174.522 74.906,174.194 76.188,174.194 80.850 L 174.194 84.990 173.129 85.541 C 172.543 85.843,171.860 86.539,171.611 87.086 C 171.061 88.293,171.009 89.243,171.537 88.425 C 171.739 88.112,171.905 88.027,171.905 88.235 C 171.905 88.702,171.171 89.882,171.163 89.429 C 171.160 89.250,170.645 89.652,170.019 90.323 C 168.437 92.016,168.312 95.256,169.829 95.256 C 170.647 95.256,171.208 93.994,170.714 93.264 C 170.508 92.959,171.638 91.478,171.936 91.663 C 172.134 91.785,172.296 91.501,172.296 91.031 C 172.296 90.201,172.311 90.198,172.834 90.914 C 173.522 91.854,173.826 91.530,174.088 89.580 C 174.223 88.575,174.558 87.877,175.029 87.625 C 175.564 87.339,175.654 87.105,175.363 86.754 C 175.068 86.399,175.136 86.273,175.623 86.269 C 175.985 86.265,176.406 86.450,176.560 86.680 C 176.749 86.963,176.840 86.937,176.844 86.600 C 176.847 86.327,177.009 86.201,177.203 86.322 C 177.398 86.442,177.664 86.366,177.795 86.154 C 177.926 85.942,178.772 85.769,179.676 85.769 C 181.156 85.769,181.376 85.647,181.904 84.533 C 182.226 83.854,183.099 82.759,183.845 82.099 C 184.908 81.157,185.199 80.616,185.199 79.580 C 185.199 77.754,185.066 77.774,196.992 77.811 L 207.531 77.843 207.940 79.016 C 208.165 79.661,208.349 80.505,208.349 80.892 C 208.349 81.375,208.626 81.594,209.239 81.594 C 210.301 81.594,211.228 82.531,211.586 83.965 C 211.735 84.559,212.278 85.212,212.849 85.483 C 213.401 85.744,214.162 86.593,214.541 87.369 C 215.077 88.465,215.518 88.834,216.520 89.022 C 218.368 89.368,218.735 90.264,218.962 94.972 C 218.969 95.128,219.370 95.256,219.852 95.256 C 221.109 95.256,221.946 96.034,222.083 97.330 C 222.180 98.258,222.417 98.499,223.432 98.705 C 225.127 99.049,225.806 99.708,225.806 101.009 L 225.806 102.115 228.415 102.049 C 229.850 102.013,231.204 102.094,231.424 102.230 C 232.057 102.622,232.346 101.079,231.803 100.209 C 231.532 99.776,231.088 99.507,230.816 99.612 C 230.515 99.727,230.427 99.631,230.590 99.367 C 230.773 99.071,230.597 99.000,230.040 99.146 C 229.277 99.345,229.222 99.222,229.222 97.308 C 229.222 95.742,229.088 95.256,228.656 95.256 C 227.896 95.256,225.806 93.030,225.806 92.220 C 225.806 90.579,224.962 89.184,223.784 88.878 C 222.749 88.610,222.558 88.356,222.314 86.931 C 222.098 85.667,221.684 84.992,220.505 83.983 C 219.664 83.262,218.975 82.484,218.975 82.254 C 218.975 81.573,215.110 78.049,214.256 77.952 C 213.825 77.902,213.040 77.848,212.511 77.830 C 211.866 77.809,211.329 77.427,210.883 76.671 C 209.880 74.974,208.543 74.804,196.015 74.784 C 189.753 74.774,182.837 74.693,180.645 74.602 C 178.454 74.512,176.267 74.525,175.786 74.630 M203.416 75.724 C 203.416 75.835,203.031 76.080,202.562 76.269 C 201.907 76.532,201.863 76.618,202.372 76.636 C 202.737 76.650,203.036 76.841,203.036 77.062 C 203.036 77.295,202.836 77.335,202.562 77.157 C 202.301 76.988,199.611 76.756,196.584 76.640 L 191.082 76.431 196.395 76.350 C 199.317 76.306,201.964 76.104,202.277 75.901 C 202.908 75.493,203.416 75.414,203.416 75.724 M173.352 86.172 C 172.993 86.381,172.529 86.845,172.320 87.204 C 172.111 87.562,171.934 87.655,171.928 87.409 C 171.913 86.830,172.978 85.765,173.557 85.780 C 173.803 85.786,173.710 85.963,173.352 86.172 M163.378 95.994 C 161.905 96.597,161.379 97.642,161.220 100.284 C 161.117 101.986,161.192 102.717,161.443 102.466 C 161.651 102.258,162.290 102.087,162.862 102.087 C 163.816 102.087,163.913 101.951,164.020 100.474 C 164.136 98.870,164.146 98.860,165.817 98.672 C 167.395 98.494,167.500 98.409,167.551 97.282 C 167.619 95.772,165.511 95.121,163.378 95.994 M160.152 103.712 C 158.645 104.936,158.480 105.503,159.632 105.503 C 160.588 105.503,160.725 105.362,160.738 104.364 C 160.746 103.738,160.746 103.231,160.737 103.238 C 160.728 103.245,160.465 103.458,160.152 103.712 M237.251 111.195 C 238.524 112.412,238.920 112.625,238.485 111.860 C 237.923 110.872,237.056 110.057,236.567 110.057 C 236.288 110.057,236.596 110.569,237.251 111.195 M236.053 111.908 C 236.053 112.911,237.092 113.724,237.654 113.162 C 237.975 112.841,237.908 112.536,237.390 111.963 C 236.521 111.004,236.053 110.985,236.053 111.908 M238.710 114.526 C 238.710 115.012,239.764 116.129,240.224 116.129 C 240.401 116.129,240.815 116.233,241.145 116.359 C 241.476 116.486,241.746 116.401,241.746 116.170 C 241.746 115.939,241.382 115.750,240.936 115.750 C 240.491 115.750,239.808 115.382,239.418 114.932 C 239.029 114.483,238.710 114.300,238.710 114.526 M139.213 116.020 C 137.671 116.187,137.279 116.535,136.737 118.216 C 136.467 119.054,136.078 119.406,135.266 119.548 C 133.903 119.786,133.134 121.234,132.901 124.004 C 132.734 125.988,132.520 126.219,131.025 126.025 C 130.764 125.991,130.550 126.151,130.550 126.381 C 130.550 126.612,130.406 126.711,130.230 126.602 C 129.715 126.284,127.034 128.942,127.352 129.456 C 127.524 129.734,127.470 129.809,127.212 129.650 C 126.654 129.304,125.996 130.598,125.996 132.043 C 125.996 133.197,125.519 133.457,123.811 133.235 C 123.241 133.160,122.509 134.914,122.662 135.991 C 122.744 136.567,122.480 136.833,121.600 137.063 C 120.117 137.452,119.648 138.484,119.323 142.071 C 119.034 145.262,119.333 147.232,120.005 146.561 C 120.310 146.256,120.280 145.958,119.896 145.462 C 119.391 144.811,119.402 144.811,120.150 145.446 C 121.029 146.192,121.621 146.327,121.229 145.693 C 121.042 145.390,121.183 145.389,121.743 145.689 C 122.469 146.077,122.534 145.961,122.833 143.746 C 123.148 141.407,123.161 141.386,124.657 140.967 C 126.001 140.591,126.207 140.371,126.555 138.949 C 126.974 137.233,127.586 136.637,128.937 136.628 C 129.618 136.624,129.791 136.407,129.791 135.560 C 129.791 134.280,130.407 133.586,131.544 133.586 C 133.008 133.586,133.586 133.166,133.586 132.104 C 133.586 130.849,134.215 130.171,135.378 130.171 C 135.986 130.171,136.387 129.848,136.671 129.127 C 137.434 127.194,137.649 126.946,138.720 126.755 C 139.388 126.637,140.016 126.152,140.399 125.461 C 140.736 124.853,141.262 124.232,141.568 124.081 C 141.875 123.931,142.611 123.579,143.205 123.300 C 143.860 122.993,144.509 122.235,144.852 121.378 C 145.362 120.103,145.618 119.919,147.453 119.508 C 149.137 119.131,150.700 118.027,149.549 118.027 C 149.136 118.027,149.518 116.405,150.008 116.081 C 150.398 115.823,141.491 115.773,139.213 116.020 M242.227 117.372 L 242.283 119.065 245.309 119.298 C 248.638 119.555,248.849 119.658,249.041 121.116 C 249.235 122.585,249.922 123.215,251.631 123.488 C 252.922 123.695,253.185 123.896,253.370 124.820 C 253.533 125.633,253.890 125.995,254.783 126.250 C 255.655 126.499,256.006 126.843,256.083 127.527 C 256.363 129.986,256.495 130.171,257.977 130.177 C 259.807 130.184,260.245 130.491,260.402 131.880 C 260.525 132.958,260.629 133.022,262.429 133.116 C 265.811 133.293,266.034 133.416,266.034 135.104 C 266.034 136.470,266.170 136.676,267.520 137.365 C 269.022 138.131,269.939 139.466,270.398 141.552 C 270.624 142.582,270.793 142.694,272.114 142.694 C 273.870 142.694,274.178 143.100,274.047 145.241 C 273.947 146.865,273.950 146.869,275.263 146.869 C 276.723 146.869,277.040 147.313,277.040 149.360 C 277.040 150.454,277.199 150.688,278.083 150.899 C 279.497 151.237,279.955 151.650,280.259 152.858 C 280.566 154.082,281.060 154.446,282.426 154.453 C 283.572 154.460,284.630 155.668,284.630 156.970 C 284.630 157.802,285.547 158.436,286.182 158.043 C 286.372 157.926,286.528 157.970,286.528 158.141 C 286.528 158.311,286.879 158.670,287.308 158.938 C 288.080 159.420,288.086 159.384,287.917 155.606 C 287.729 151.418,287.394 150.664,285.722 150.664 C 284.736 150.664,284.625 150.535,284.583 149.336 C 284.556 148.605,284.514 147.794,284.488 147.533 C 284.458 147.236,283.690 147.016,282.430 146.944 C 280.751 146.847,280.354 146.682,280.017 145.942 C 279.794 145.454,279.162 144.828,278.611 144.552 C 278.060 144.275,277.001 143.402,276.258 142.613 C 275.515 141.823,274.704 141.176,274.455 141.176 C 274.142 141.176,274.004 140.192,274.004 137.951 C 274.004 134.077,273.445 133.207,270.956 133.207 C 269.655 133.207,269.216 132.978,268.022 131.679 C 267.042 130.614,266.198 130.085,265.230 129.930 C 263.887 129.715,263.836 129.648,263.590 127.757 C 263.056 123.666,262.476 123.084,258.861 123.012 C 256.342 122.962,256.554 123.235,256.504 119.972 C 256.458 116.942,256.002 116.130,254.334 116.109 C 253.776 116.102,250.812 116.002,247.746 115.888 L 242.172 115.679 242.227 117.372 M212.454 122.248 C 212.708 122.587,212.810 123.142,212.679 123.481 C 212.549 123.821,212.613 124.099,212.820 124.099 C 213.028 124.099,213.175 124.395,213.146 124.757 C 213.109 125.209,213.389 125.428,214.042 125.459 C 214.564 125.484,215.247 125.572,215.560 125.655 C 215.969 125.764,216.137 125.486,216.158 124.668 C 216.204 122.880,215.960 122.581,214.457 122.581 C 213.686 122.581,212.816 122.367,212.523 122.106 C 212.076 121.708,212.065 121.730,212.454 122.248 M129.412 128.260 C 129.412 128.461,129.070 128.809,128.653 129.032 C 127.817 129.480,127.633 129.065,128.349 128.349 C 128.898 127.800,129.412 127.757,129.412 128.260 M222.923 133.112 C 222.901 133.989,223.119 134.728,223.493 135.038 C 223.973 135.436,223.980 135.489,223.529 135.294 C 223.216 135.159,223.297 135.321,223.708 135.654 C 224.120 135.987,224.689 136.170,224.973 136.062 C 225.257 135.953,225.614 135.863,225.767 135.863 C 225.919 135.863,226.086 135.057,226.137 134.070 C 226.188 133.084,226.121 132.387,225.987 132.520 C 225.854 132.654,225.166 132.521,224.459 132.226 C 223.753 131.930,223.126 131.689,223.067 131.689 C 223.008 131.689,222.943 132.329,222.923 133.112 M169.082 138.128 C 167.687 139.669,168.797 142.315,170.839 142.315 C 171.888 142.315,173.679 141.317,173.964 140.573 C 174.189 139.988,174.138 139.987,173.265 140.559 C 172.008 141.382,171.651 141.340,172.445 140.463 C 173.040 139.805,173.043 139.700,172.477 139.134 C 171.696 138.354,172.245 138.336,173.345 139.107 C 174.068 139.614,174.154 139.617,173.967 139.130 C 173.332 137.475,170.246 136.842,169.082 138.128 M275.555 142.757 C 275.911 143.423,275.877 143.445,275.172 143.005 C 274.233 142.418,273.795 141.500,274.603 141.810 C 274.911 141.928,275.340 142.354,275.555 142.757 M156.064 144.402 C 156.107 144.924,156.276 145.351,156.440 145.351 C 156.603 145.351,156.736 144.924,156.736 144.402 C 156.736 143.880,156.567 143.454,156.361 143.454 C 156.155 143.454,156.021 143.880,156.064 144.402 M162.444 145.423 C 161.373 146.572,161.475 147.438,162.794 148.377 L 163.917 149.177 165.450 148.395 C 167.347 147.427,167.457 147.089,165.627 147.854 C 163.146 148.890,161.271 147.354,163.016 145.714 C 163.929 144.856,163.987 144.850,165.291 145.472 C 167.089 146.329,167.428 146.274,166.034 145.351 C 164.553 144.370,163.403 144.393,162.444 145.423 M153.700 146.114 C 153.700 146.321,154.127 146.490,154.649 146.490 C 155.171 146.490,155.598 146.356,155.598 146.193 C 155.598 146.030,155.171 145.861,154.649 145.818 C 154.127 145.774,153.700 145.908,153.700 146.114 M163.293 146.156 C 162.200 147.250,163.872 148.093,165.174 147.105 C 165.782 146.643,165.759 146.572,164.871 146.168 C 163.706 145.637,163.812 145.638,163.293 146.156 M110.198 150.675 C 107.579 150.889,105.503 151.738,105.503 152.596 C 105.503 152.814,106.046 152.606,106.710 152.133 C 107.374 151.661,107.763 151.521,107.574 151.823 C 107.386 152.125,107.197 152.601,107.155 152.881 C 107.049 153.579,106.641 153.942,106.641 153.337 C 106.641 152.993,106.501 152.963,106.167 153.235 C 105.906 153.448,104.839 153.709,103.795 153.814 C 98.738 154.326,99.034 154.169,98.772 156.487 C 98.624 157.800,98.380 158.266,97.668 158.590 C 97.164 158.819,96.649 159.277,96.522 159.608 C 96.264 160.280,94.626 161.068,93.713 160.958 C 92.909 160.862,91.695 162.262,91.968 162.972 C 92.088 163.286,92.024 163.644,91.824 163.767 C 91.624 163.891,91.461 164.409,91.461 164.918 C 91.461 165.561,91.250 165.844,90.770 165.844 C 89.692 165.844,86.996 168.369,86.717 169.640 C 86.537 170.459,86.086 170.945,85.075 171.406 C 82.496 172.582,81.973 173.315,81.973 175.755 C 81.973 176.959,81.791 178.057,81.568 178.194 C 81.345 178.332,81.251 178.675,81.359 178.956 C 81.467 179.238,81.259 179.562,80.898 179.676 C 80.536 179.791,79.937 180.398,79.567 181.024 C 79.197 181.651,78.691 182.166,78.442 182.169 C 78.115 182.173,78.123 182.260,78.472 182.481 C 79.058 182.854,81.281 182.577,81.025 182.164 C 80.767 181.746,81.792 180.974,82.155 181.313 C 82.320 181.467,82.256 181.210,82.011 180.740 C 81.722 180.185,81.705 179.886,81.960 179.886 C 82.176 179.886,82.353 179.620,82.353 179.294 C 82.353 178.969,82.509 178.799,82.700 178.917 C 82.891 179.035,83.114 178.931,83.196 178.686 C 83.285 178.419,83.946 178.282,84.841 178.346 C 88.221 178.585,88.709 178.461,90.224 176.968 C 91.032 176.173,92.065 174.718,92.520 173.736 C 93.212 172.241,93.594 171.876,94.871 171.494 C 95.709 171.243,96.403 170.851,96.412 170.623 C 96.432 170.147,97.555 169.185,99.345 168.109 C 100.029 167.698,100.750 166.935,100.949 166.413 C 101.147 165.892,101.484 165.465,101.698 165.465 C 101.912 165.465,102.087 164.867,102.087 164.137 C 102.087 162.638,103.047 161.445,104.558 161.066 C 105.186 160.908,105.720 160.367,106.067 159.536 C 106.393 158.756,107.020 158.092,107.659 157.849 C 108.972 157.349,109.285 156.869,109.292 155.339 C 109.298 154.083,110.207 153.439,111.670 153.651 C 112.194 153.727,112.334 153.469,112.334 152.427 C 112.334 151.701,112.547 151.031,112.808 150.937 C 113.835 150.571,112.777 150.465,110.198 150.675 M148.957 151.139 C 148.804 151.608,148.654 152.163,148.624 152.372 C 148.593 152.581,148.207 152.702,147.766 152.641 C 147.312 152.578,146.865 152.784,146.738 153.115 C 146.614 153.437,146.679 153.700,146.881 153.700 C 147.083 153.700,147.251 153.487,147.254 153.226 C 147.258 152.898,147.346 152.880,147.539 153.168 C 147.692 153.398,148.109 153.583,148.466 153.580 C 149.207 153.573,149.677 152.700,149.123 152.358 C 148.920 152.232,148.864 151.953,148.998 151.736 C 149.155 151.482,149.357 151.525,149.567 151.857 C 149.795 152.217,149.895 152.058,149.899 151.328 C 149.906 150.069,149.342 149.955,148.957 151.139 M155.422 151.066 C 155.540 151.258,155.397 151.322,155.102 151.209 C 154.298 150.900,153.619 152.936,153.764 155.222 L 153.890 157.197 150.854 157.264 C 146.949 157.350,146.985 157.317,146.905 160.794 C 146.835 163.808,146.558 164.372,145.309 164.046 C 144.915 163.943,144.592 164.049,144.592 164.282 C 144.592 164.515,144.379 164.663,144.118 164.611 C 143.498 164.487,143.374 170.455,143.987 170.867 C 144.273 171.059,144.254 171.148,143.928 171.152 C 143.667 171.155,143.454 171.424,143.454 171.749 C 143.454 172.121,143.629 172.235,143.928 172.056 C 144.290 171.839,144.302 171.901,143.980 172.318 C 142.748 173.913,146.528 175.074,148.365 173.665 C 148.781 173.345,148.844 173.358,148.627 173.719 C 148.440 174.031,148.584 174.194,149.046 174.194 C 149.577 174.194,149.771 173.875,149.837 172.898 C 149.913 171.768,149.827 171.629,149.160 171.803 C 148.740 171.913,148.482 172.142,148.587 172.313 C 148.693 172.484,148.601 172.733,148.384 172.867 C 148.167 173.002,148.013 172.971,148.043 172.799 C 148.187 171.971,147.959 171.839,147.491 172.478 C 147.207 172.867,146.694 173.226,146.352 173.276 C 145.627 173.383,145.507 172.814,146.205 172.579 C 146.559 172.460,146.572 172.283,146.257 171.883 C 146.024 171.588,145.839 171.053,145.846 170.693 C 145.861 169.809,148.142 170.014,148.320 170.916 C 148.476 171.704,148.996 171.718,149.294 170.941 C 149.431 170.584,149.865 170.394,150.378 170.467 C 150.848 170.534,151.490 170.324,151.803 170.001 C 152.116 169.678,152.220 169.639,152.034 169.915 C 151.784 170.285,151.861 170.352,152.330 170.172 C 152.744 170.013,152.885 169.682,152.737 169.215 C 152.612 168.820,152.692 168.501,152.916 168.501 C 153.138 168.501,153.321 168.239,153.321 167.919 C 153.321 167.291,154.749 166.597,155.474 166.872 C 156.279 167.179,156.669 165.690,156.607 162.553 C 156.574 160.854,156.674 159.543,156.829 159.640 C 156.985 159.736,157.540 159.354,158.063 158.789 C 158.783 158.013,159.013 157.915,159.013 158.389 C 159.013 158.732,158.884 159.013,158.725 159.013 C 158.567 159.013,158.221 159.359,157.957 159.781 C 157.511 160.496,157.532 160.515,158.268 160.065 C 158.702 159.800,159.253 158.860,159.491 157.978 C 159.730 157.095,160.403 155.814,160.986 155.131 C 162.326 153.564,162.323 153.527,160.697 151.994 C 159.393 150.764,154.728 149.944,155.422 151.066 M97.955 159.814 C 97.519 160.283,97.060 160.564,96.936 160.440 C 96.812 160.316,97.081 159.845,97.533 159.393 C 98.606 158.320,98.989 158.704,97.955 159.814 M291.234 166.263 C 291.264 167.134,291.432 167.323,292.125 167.267 C 293.206 167.178,293.199 166.932,292.087 165.965 L 291.196 165.190 291.234 166.263 M292.156 165.347 C 292.434 165.458,292.989 166.085,293.388 166.740 C 293.793 167.403,294.115 167.669,294.116 167.339 C 294.118 166.607,292.736 165.075,292.110 165.115 C 291.797 165.136,291.811 165.209,292.156 165.347 M146.110 171.179 C 146.110 171.376,146.301 171.537,146.534 171.537 C 146.771 171.537,146.870 171.872,146.759 172.297 C 146.650 172.714,146.715 172.960,146.904 172.843 C 147.094 172.726,147.249 172.385,147.249 172.084 C 147.249 171.783,147.448 171.537,147.691 171.537 C 148.365 171.537,147.837 171.154,146.920 170.978 C 146.475 170.892,146.110 170.983,146.110 171.179 M303.668 171.676 C 304.015 171.932,304.356 172.646,304.427 173.263 C 304.532 174.192,304.749 174.404,305.693 174.507 C 307.305 174.683,307.420 174.892,307.626 178.028 C 307.837 181.247,308.314 182.456,309.437 182.618 C 309.872 182.681,310.409 183.098,310.632 183.546 C 311.402 185.098,312.022 185.539,313.597 185.653 C 315.171 185.768,315.181 185.779,315.370 187.476 C 315.495 188.598,315.670 189.013,315.881 188.686 C 317.418 186.306,318.767 196.009,317.480 200.190 C 317.159 201.233,316.894 202.744,316.892 203.546 C 316.889 204.684,316.721 205.048,316.129 205.203 C 315.146 205.460,315.065 207.198,316.034 207.237 C 316.602 207.260,316.588 207.311,315.939 207.590 C 315.325 207.854,315.470 207.936,316.698 208.020 C 320.349 208.268,321.420 207.936,322.273 206.293 L 322.684 205.503 321.778 206.300 C 320.405 207.509,319.588 207.854,320.778 206.722 C 321.352 206.176,321.822 205.588,321.822 205.416 C 321.822 205.244,322.505 205.112,323.340 205.123 C 324.175 205.134,324.858 205.001,324.858 204.826 C 324.858 204.652,325.055 204.631,325.296 204.780 C 325.557 204.942,325.631 204.885,325.479 204.639 C 325.339 204.412,325.392 204.124,325.597 203.997 C 325.812 203.864,325.894 202.611,325.792 201.030 C 325.695 199.524,325.612 197.931,325.608 197.489 C 325.598 196.474,324.391 195.358,323.472 195.516 C 322.842 195.623,322.759 195.306,322.659 192.429 C 322.529 188.703,322.306 188.316,320.194 188.161 C 318.875 188.064,318.592 187.895,318.412 187.097 C 318.275 186.490,317.688 185.897,316.784 185.453 L 315.370 184.757 315.370 181.373 C 315.370 178.544,315.272 177.989,314.772 177.989 C 314.007 177.989,311.954 175.952,311.954 175.193 C 311.954 174.790,311.485 174.582,310.389 174.500 C 308.975 174.395,308.782 174.255,308.390 173.055 C 308.060 172.045,307.753 171.734,307.109 171.757 C 306.643 171.773,306.262 171.666,306.262 171.517 C 306.262 171.368,305.536 171.238,304.649 171.228 C 303.286 171.212,303.134 171.281,303.668 171.676 M117.993 180.946 L 115.493 181.057 115.052 182.967 C 113.843 188.206,114.377 188.996,119.104 188.959 L 122.581 188.932 122.581 186.876 C 122.581 185.745,122.410 184.820,122.201 184.820 C 121.992 184.820,121.822 183.986,121.822 182.966 C 121.822 180.814,121.755 180.779,117.993 180.946 M78.178 183.270 C 78.178 183.461,78.392 183.704,78.653 183.809 C 78.936 183.924,78.860 184.013,78.463 184.031 C 77.815 184.060,77.484 184.820,78.120 184.820 C 78.916 184.820,79.760 183.407,79.112 183.159 C 78.294 182.845,78.178 182.859,78.178 183.270 M270.968 186.023 L 270.968 188.175 273.341 188.429 C 277.557 188.881,277.951 188.727,278.222 186.528 C 278.522 184.095,278.605 184.151,274.478 184.000 L 270.967 183.871 270.968 186.023 M76.946 185.815 C 75.927 186.348,74.031 189.374,74.714 189.374 C 74.905 189.374,75.162 189.110,75.286 188.787 C 75.410 188.464,75.727 188.228,75.991 188.262 C 77.218 188.423,77.643 188.139,78.032 186.896 C 78.533 185.297,78.326 185.091,76.946 185.815 M68.436 192.002 C 64.190 192.268,64.318 192.141,64.362 196.031 C 64.399 199.345,65.548 201.898,67.002 201.898 C 67.431 201.898,67.553 202.502,67.558 204.649 C 67.565 207.913,67.693 208.161,69.545 208.501 C 70.937 208.757,70.968 208.800,70.968 210.454 L 70.968 212.144 72.770 212.145 L 74.573 212.145 74.495 208.585 C 74.420 205.171,74.369 204.978,73.261 203.870 C 72.231 202.840,72.102 202.455,72.064 200.314 C 72.040 198.993,71.984 197.144,71.938 196.205 C 71.893 195.266,71.989 194.224,72.153 193.891 C 72.326 193.539,72.259 193.079,71.994 192.792 C 71.636 192.406,71.640 192.357,72.011 192.566 C 72.303 192.731,72.486 192.606,72.486 192.243 C 72.486 191.917,72.358 191.681,72.201 191.717 C 72.045 191.754,70.350 191.882,68.436 192.002 M100.380 211.760 C 99.962 211.942,94.113 212.103,87.381 212.118 C 74.164 212.146,74.029 212.169,75.941 214.081 C 76.550 214.690,77.023 214.826,77.933 214.651 C 78.788 214.487,78.966 214.528,78.558 214.795 C 77.867 215.248,77.566 215.228,86.907 215.365 C 90.769 215.422,94.227 215.489,94.592 215.514 C 95.122 215.551,95.261 215.925,95.278 217.362 C 95.312 220.235,95.998 221.780,97.343 222.010 C 98.953 222.287,98.962 222.464,99.010 253.820 C 99.053 281.993,99.048 282.081,97.383 282.499 C 96.135 282.812,95.471 284.863,95.790 287.426 C 95.923 288.497,96.137 290.655,96.265 292.220 C 96.471 294.736,96.631 295.194,97.641 296.167 C 98.630 297.119,98.820 297.637,99.053 300.014 C 99.325 302.800,99.934 303.946,101.423 304.481 C 102.217 304.767,102.220 304.748,102.105 299.430 C 102.034 296.162,102.162 295.069,102.812 293.358 C 103.808 290.738,103.818 288.605,102.846 286.338 C 101.732 283.739,101.692 220.244,102.803 217.507 C 103.335 216.195,103.400 215.520,103.117 214.281 C 102.484 211.518,101.987 211.060,100.380 211.760 M290.536 212.877 C 289.960 213.514,289.906 213.776,290.278 214.146 C 290.650 214.514,290.695 214.453,290.499 213.852 C 290.306 213.261,290.338 213.215,290.641 213.644 C 291.080 214.264,290.839 214.930,290.296 214.595 C 290.102 214.475,289.943 214.567,289.943 214.801 C 289.943 215.034,289.730 215.102,289.469 214.952 C 289.208 214.802,289.113 214.811,289.258 214.972 C 289.882 215.665,304.957 215.453,304.527 214.758 C 304.413 214.573,304.510 214.421,304.744 214.421 C 304.977 214.421,305.089 214.293,304.992 214.137 C 304.895 213.980,305.587 213.913,306.530 213.988 C 308.226 214.123,309.866 213.569,310.178 212.755 C 310.533 211.828,291.378 211.946,290.536 212.877 M310.816 212.524 C 310.816 213.589,309.244 214.423,307.116 214.488 C 305.119 214.548,305.076 214.566,306.611 214.702 C 307.533 214.784,308.675 214.754,309.147 214.635 C 310.043 214.410,311.930 212.144,311.221 212.144 C 310.998 212.144,310.816 212.315,310.816 212.524 M297.825 213.933 C 297.254 214.020,296.230 214.022,295.548 213.937 C 294.865 213.853,295.332 213.782,296.584 213.780 C 297.837 213.778,298.395 213.847,297.825 213.933 M292.789 214.421 C 292.918 214.630,292.672 214.801,292.243 214.801 C 291.813 214.801,291.461 214.630,291.461 214.421 C 291.461 214.213,291.707 214.042,292.008 214.042 C 292.309 214.042,292.660 214.213,292.789 214.421 M128.485 282.042 C 128.943 283.486,128.913 285.151,128.402 286.651 C 128.130 287.450,127.907 288.475,127.906 288.928 C 127.904 290.706,127.736 291.107,126.906 291.315 C 126.192 291.494,126.048 291.781,126.065 292.991 C 126.088 294.687,126.880 295.226,127.832 294.196 C 128.202 293.795,128.313 293.756,128.102 294.100 C 127.808 294.577,127.838 294.601,128.258 294.227 C 128.542 293.975,128.823 293.315,128.882 292.762 C 128.941 292.209,129.055 291.691,129.135 291.611 C 129.215 291.531,156.165 291.461,189.024 291.455 C 223.683 291.449,248.995 291.301,249.310 291.103 C 249.711 290.851,249.866 289.839,249.904 287.222 C 249.961 283.253,249.795 281.880,249.295 282.188 C 249.109 282.303,248.956 282.207,248.956 281.973 C 248.956 281.740,248.786 281.655,248.577 281.784 C 248.368 281.913,248.197 281.839,248.197 281.621 C 248.197 281.346,229.740 281.221,188.209 281.217 L 128.221 281.210 128.485 282.042 M254.023 296.238 C 252.808 298.093,253.351 298.471,257.405 298.591 L 261.101 298.699 261.101 296.958 L 261.101 295.217 257.849 295.289 C 254.911 295.354,254.543 295.445,254.023 296.238 M121.917 319.037 C 121.656 319.142,121.442 319.802,121.442 320.503 C 121.442 322.163,121.064 322.353,117.535 322.463 C 112.910 322.607,112.334 322.404,112.334 320.636 C 112.334 319.173,112.326 319.165,110.816 319.165 L 109.298 319.165 109.298 321.022 C 109.298 322.943,110.090 324.173,112.251 325.606 C 112.947 326.067,113.093 326.518,113.093 328.205 C 113.093 331.933,116.772 333.754,120.121 331.685 C 121.475 330.848,121.809 330.045,121.816 327.609 L 121.822 325.996 204.318 325.996 C 278.495 325.996,286.863 325.937,287.304 325.406 C 287.574 325.080,287.874 323.435,287.972 321.740 L 288.150 318.665 284.624 318.915 C 282.685 319.052,280.602 319.165,279.995 319.165 C 279.389 319.165,278.986 319.316,279.100 319.501 C 279.214 319.685,278.754 320.060,278.079 320.333 C 277.403 320.606,276.738 320.994,276.601 321.195 C 275.971 322.121,259.055 322.341,251.992 321.516 C 251.053 321.406,249.175 321.349,247.818 321.389 C 246.461 321.429,223.833 321.500,197.533 321.547 L 149.715 321.632 149.593 320.569 C 149.511 319.847,149.167 319.389,148.525 319.145 C 147.566 318.781,122.802 318.680,121.917 319.037 " stroke="none" fill="#ada797" fill-rule="evenodd"></path><path id="path2" d="M186.812 78.178 C 186.152 78.453,185.958 78.841,185.958 79.893 C 185.958 80.942,185.667 81.531,184.685 82.467 C 183.984 83.135,182.939 84.322,182.362 85.104 C 181.428 86.373,181.133 86.528,179.651 86.528 C 178.476 86.528,177.989 86.684,177.989 87.061 C 177.989 87.408,177.723 87.525,177.230 87.396 C 176.745 87.270,176.468 87.386,176.465 87.717 C 176.460 88.155,176.408 88.155,176.130 87.716 C 175.713 87.058,174.187 88.447,174.206 89.469 C 174.217 90.084,174.257 90.081,174.749 89.431 C 175.123 88.938,176.219 88.585,178.437 88.244 C 182.421 87.631,182.816 87.458,183.554 86.007 C 183.886 85.354,184.904 84.097,185.817 83.213 C 186.933 82.132,187.476 81.286,187.476 80.627 C 187.476 78.188,187.509 78.178,195.812 78.178 C 203.716 78.178,204.554 78.348,204.554 79.950 C 204.554 81.127,205.899 82.746,207.505 83.501 C 208.658 84.043,209.318 84.661,209.687 85.543 C 210.314 87.043,213.650 90.149,215.436 90.895 C 216.647 91.401,216.698 91.506,216.698 93.489 C 216.698 95.251,216.848 95.688,217.709 96.450 C 218.265 96.941,219.488 98.155,220.426 99.146 C 221.365 100.138,222.362 100.949,222.642 100.949 C 222.921 100.949,223.150 101.106,223.150 101.299 C 223.150 102.708,225.162 103.985,227.381 103.985 C 228.682 103.985,229.553 103.835,229.428 103.632 C 229.308 103.437,229.383 103.171,229.595 103.040 C 229.807 102.909,229.981 102.982,229.981 103.203 C 229.981 103.685,230.816 103.571,231.209 103.036 C 231.362 102.827,231.493 102.998,231.499 103.416 C 231.509 104.037,231.575 104.073,231.867 103.611 C 232.439 102.706,231.223 102.306,228.217 102.408 L 225.505 102.500 224.802 101.060 C 224.344 100.123,223.796 99.578,223.232 99.498 C 222.717 99.425,221.989 98.780,221.441 97.911 C 220.933 97.106,220.042 96.221,219.462 95.944 C 218.541 95.504,218.393 95.198,218.307 93.545 C 218.141 90.382,217.965 90.001,216.538 89.734 C 215.099 89.464,213.848 88.469,213.477 87.299 C 213.342 86.875,213.079 86.528,212.892 86.528 C 212.400 86.528,210.986 84.956,210.607 83.987 C 210.428 83.529,209.592 82.761,208.749 82.279 C 207.499 81.566,207.215 81.194,207.208 80.266 C 207.190 77.957,207.359 77.996,197.073 77.905 C 191.869 77.859,187.285 77.981,186.812 78.178 M172.210 91.637 C 171.558 92.211,171.087 93.097,170.938 94.029 C 170.725 95.359,170.588 95.509,169.588 95.509 C 168.170 95.509,167.615 96.074,167.615 97.521 C 167.615 98.600,167.526 98.672,166.174 98.672 C 164.684 98.672,163.947 99.378,163.947 100.807 C 163.947 101.412,163.997 101.405,164.482 100.741 C 164.777 100.338,164.938 99.878,164.840 99.720 C 164.741 99.561,164.842 99.409,165.063 99.383 C 165.284 99.357,165.593 99.304,165.750 99.266 C 165.906 99.228,166.747 99.065,167.617 98.906 C 169.135 98.627,170.266 97.533,169.036 97.533 C 168.717 97.533,168.555 97.373,168.676 97.177 C 168.797 96.981,169.239 96.887,169.658 96.967 C 170.080 97.049,170.318 96.951,170.193 96.748 C 170.068 96.547,169.810 96.479,169.618 96.598 C 169.426 96.717,169.376 96.534,169.507 96.193 C 169.681 95.740,169.822 95.697,170.029 96.032 C 170.190 96.292,170.523 96.363,170.794 96.195 C 171.060 96.031,171.180 96.052,171.064 96.241 C 170.723 96.795,174.015 96.634,174.704 96.064 C 175.792 95.161,174.922 91.461,173.621 91.461 C 173.285 91.461,173.116 91.290,173.245 91.082 C 173.604 90.500,173.341 90.641,172.210 91.637 M162.730 102.226 C 161.353 102.585,160.693 103.325,161.126 104.025 C 161.245 104.219,161.528 104.262,161.755 104.122 C 162.001 103.970,162.057 104.044,161.896 104.306 C 161.747 104.547,161.788 104.744,161.986 104.744 C 162.548 104.744,162.795 103.744,162.345 103.293 C 162.058 103.007,162.158 102.946,162.685 103.084 C 163.109 103.195,163.647 103.018,163.933 102.674 C 164.602 101.867,164.398 101.791,162.730 102.226 M160.668 105.028 C 160.698 105.405,160.498 105.646,160.207 105.585 C 159.381 105.411,158.476 105.820,157.999 106.584 C 157.622 107.187,157.665 107.288,158.285 107.252 C 159.227 107.199,161.754 105.188,161.466 104.721 C 161.101 104.131,160.612 104.319,160.668 105.028 M232.856 106.513 C 232.717 106.876,232.805 106.965,233.116 106.778 C 233.428 106.591,233.410 106.713,233.065 107.138 C 232.779 107.491,232.651 107.801,232.781 107.827 C 233.284 107.928,233.784 108.069,233.966 108.159 C 234.070 108.212,234.312 108.276,234.503 108.302 C 234.695 108.328,234.994 108.505,235.168 108.695 C 235.351 108.895,235.285 108.926,235.009 108.767 C 234.720 108.600,234.535 108.715,234.535 109.062 C 234.535 109.376,234.842 109.607,235.221 109.579 C 235.829 109.533,235.863 109.360,235.517 108.063 C 235.192 106.846,235.053 106.697,234.698 107.183 C 234.463 107.505,234.159 107.657,234.023 107.521 C 233.630 107.128,233.737 106.572,234.156 106.831 C 234.364 106.960,234.535 106.905,234.535 106.708 C 234.535 106.094,233.082 105.925,232.856 106.513 M232.427 108.573 C 232.309 108.763,232.679 108.918,233.248 108.918 C 233.817 108.918,234.163 108.800,234.018 108.654 C 233.604 108.240,232.662 108.192,232.427 108.573 M235.398 110.816 C 235.430 111.233,235.590 111.575,235.754 111.575 C 235.919 111.575,236.053 111.233,236.053 110.816 C 236.053 110.398,235.893 110.057,235.697 110.057 C 235.501 110.057,235.367 110.398,235.398 110.816 M152.645 112.962 C 151.183 113.575,150.664 114.708,150.664 117.285 C 150.664 119.013,150.587 119.167,149.620 119.374 C 147.657 119.794,146.905 120.271,146.269 121.502 C 145.454 123.078,145.061 123.447,143.533 124.072 C 142.846 124.353,141.821 125.127,141.256 125.792 C 140.690 126.457,139.688 127.216,139.027 127.479 C 138.283 127.777,137.738 128.314,137.592 128.895 C 137.463 129.410,136.758 130.184,136.027 130.616 C 135.296 131.048,134.443 131.892,134.133 132.492 C 133.822 133.093,132.991 133.825,132.286 134.119 C 131.580 134.414,130.773 135.138,130.489 135.730 C 130.206 136.321,129.507 137.029,128.936 137.303 C 128.337 137.590,127.794 138.233,127.651 138.824 C 127.291 140.313,126.050 141.935,125.270 141.935 C 124.322 141.935,123.392 143.085,123.101 144.617 C 122.705 146.700,122.339 147.170,121.272 146.966 C 120.746 146.865,120.015 146.916,119.646 147.078 C 118.792 147.453,118.541 147.522,117.814 147.581 C 117.489 147.607,117.328 147.799,117.457 148.008 C 117.586 148.216,117.426 148.387,117.100 148.387 C 116.586 148.387,116.317 149.069,116.464 150.000 C 116.488 150.157,116.328 150.285,116.107 150.285 C 115.886 150.285,115.804 150.445,115.925 150.641 C 116.046 150.837,116.483 150.932,116.896 150.852 C 117.309 150.773,117.647 150.869,117.647 151.065 C 117.647 151.815,118.590 151.371,119.800 150.050 C 120.646 149.126,121.290 148.738,121.767 148.862 C 122.301 149.002,122.603 148.728,122.983 147.761 C 123.560 146.290,124.265 145.570,126.061 144.619 C 127.311 143.956,128.943 141.585,129.002 140.344 C 129.018 139.991,129.338 139.478,129.712 139.206 C 130.086 138.933,130.898 137.993,131.515 137.118 C 132.132 136.243,133.010 135.431,133.466 135.314 C 133.922 135.198,134.684 134.548,135.160 133.870 C 135.636 133.192,136.170 132.577,136.347 132.503 C 136.914 132.267,138.335 130.772,139.016 129.696 C 139.379 129.122,139.915 128.653,140.207 128.653 C 140.499 128.653,141.306 127.991,142.001 127.183 C 142.812 126.239,143.739 125.611,144.592 125.428 C 146.468 125.025,147.890 123.909,148.430 122.415 C 148.726 121.597,149.476 120.766,150.505 120.115 C 151.939 119.209,152.845 117.770,152.615 116.765 C 152.575 116.593,152.695 116.546,152.881 116.661 C 153.067 116.776,153.541 116.503,153.934 116.055 C 154.327 115.606,154.472 115.342,154.255 115.467 C 153.806 115.727,153.755 113.915,154.192 113.214 C 154.636 112.501,153.993 112.397,152.645 112.962 M235.932 116.034 C 235.656 119.945,235.645 119.924,237.878 119.926 C 242.509 119.932,243.968 120.471,246.492 123.109 C 248.183 124.877,249.256 125.668,250.370 125.968 C 251.813 126.357,253.131 127.958,253.131 129.323 C 253.131 129.877,255.093 131.924,256.167 132.490 C 257.144 133.005,257.348 133.074,258.159 133.165 C 259.077 133.268,259.611 133.849,259.797 134.945 C 260.095 136.710,260.220 136.889,261.351 137.173 C 261.940 137.321,262.508 137.556,262.615 137.696 C 262.721 137.836,263.321 138.232,263.947 138.576 C 264.617 138.945,265.514 140.029,266.127 141.213 C 267.394 143.658,269.151 145.546,271.091 146.545 C 272.027 147.028,272.769 147.790,273.180 148.694 C 274.107 150.736,275.527 152.503,276.939 153.376 C 277.621 153.797,278.178 154.370,278.178 154.648 C 278.178 154.927,279.459 156.335,281.025 157.778 C 282.590 159.220,283.871 160.527,283.871 160.683 C 283.871 161.342,284.924 161.863,286.351 161.909 C 287.875 161.959,287.882 161.953,287.733 160.679 C 287.651 159.975,287.431 159.493,287.245 159.608 C 287.059 159.723,286.907 159.630,286.907 159.402 C 286.907 159.168,286.453 159.050,285.863 159.131 C 284.947 159.257,284.745 159.086,284.207 157.734 C 283.562 156.115,283.167 155.773,281.555 155.438 C 280.975 155.317,280.140 154.615,279.529 153.733 C 278.958 152.908,277.909 151.838,277.198 151.354 C 276.462 150.853,275.903 150.148,275.899 149.715 C 275.884 148.283,275.439 147.273,274.722 147.046 C 274.300 146.912,274.004 146.468,274.004 145.971 C 274.004 144.794,273.304 144.213,271.887 144.213 C 270.438 144.213,270.073 143.820,269.238 141.360 C 268.886 140.324,268.320 139.279,267.980 139.039 C 266.322 137.868,264.896 136.156,264.896 135.337 C 264.896 134.114,264.078 133.529,262.049 133.301 C 260.694 133.148,260.342 132.960,260.342 132.389 C 260.342 131.620,258.674 130.760,257.820 131.088 C 257.118 131.357,255.028 129.490,255.028 128.594 C 255.028 127.600,254.316 126.302,253.908 126.554 C 253.730 126.664,253.406 126.242,253.188 125.616 C 252.874 124.718,252.567 124.478,251.728 124.477 C 250.162 124.475,248.348 123.223,248.073 121.956 C 247.645 119.981,247.361 119.837,243.209 119.491 C 238.720 119.116,238.019 118.945,238.602 118.362 C 239.048 117.916,238.808 116.509,238.286 116.509 C 238.102 116.509,237.951 116.328,237.951 116.107 C 237.951 115.886,238.164 115.814,238.425 115.947 C 238.686 116.081,238.420 115.749,237.834 115.210 C 237.248 114.671,236.846 114.102,236.940 113.946 C 237.035 113.790,236.898 113.465,236.636 113.223 C 236.259 112.875,236.113 113.457,235.932 116.034 M217.638 121.156 C 216.841 121.322,216.004 121.589,215.779 121.751 C 215.554 121.912,214.737 122.023,213.963 121.996 C 213.190 121.969,212.645 122.090,212.752 122.264 C 212.860 122.438,214.390 122.581,216.151 122.581 C 218.002 122.581,219.375 122.741,219.402 122.960 C 219.428 123.169,219.471 123.667,219.497 124.067 C 219.574 125.247,220.026 125.473,222.529 125.585 C 223.097 125.610,223.203 125.845,223.067 126.772 C 222.973 127.407,223.042 128.017,223.219 128.126 C 223.397 128.236,223.444 128.485,223.323 128.679 C 223.131 128.990,224.959 129.188,225.712 128.937 C 225.868 128.885,226.082 130.463,226.186 132.444 C 226.343 135.417,226.487 136.066,227.011 136.166 C 227.541 136.267,227.631 135.998,227.555 134.555 C 227.494 133.395,227.690 132.479,228.151 131.782 C 228.888 130.663,229.095 127.715,228.463 127.324 C 228.254 127.195,228.083 126.668,228.083 126.151 C 228.083 122.297,223.257 119.989,217.638 121.156 M152.993 142.844 C 152.344 144.146,152.311 146.490,152.941 146.490 C 153.150 146.490,153.321 145.721,153.321 144.782 L 153.321 143.074 155.028 143.074 C 156.214 143.074,156.736 142.916,156.736 142.559 C 156.736 141.636,153.470 141.885,152.993 142.844 M148.008 149.112 C 145.693 149.442,145.441 149.663,145.466 151.343 C 145.477 152.141,145.361 152.998,145.207 153.247 C 145.024 153.542,145.199 153.700,145.708 153.700 C 146.393 153.700,146.490 153.465,146.490 151.803 L 146.490 149.905 148.197 149.905 C 149.462 149.905,149.905 149.758,149.905 149.336 C 149.905 149.023,149.862 148.789,149.810 148.817 C 149.758 148.845,148.947 148.978,148.008 149.112 M113.127 151.015 C 112.833 151.201,112.548 151.753,112.494 152.242 C 112.441 152.731,112.383 153.259,112.366 153.416 C 112.348 153.572,111.925 153.700,111.426 153.700 C 110.447 153.700,110.064 154.314,110.044 155.913 C 110.031 156.957,108.906 158.634,108.218 158.634 C 108.004 158.634,107.348 159.313,106.761 160.144 C 106.173 160.974,105.502 161.657,105.269 161.662 C 104.132 161.684,102.927 163.229,102.679 164.983 C 102.294 167.708,102.143 168.025,101.102 168.286 C 100.576 168.419,99.424 169.191,98.542 170.004 C 97.661 170.816,96.448 171.605,95.846 171.756 C 94.301 172.143,93.059 173.339,92.767 174.720 C 92.213 177.334,89.517 179.512,86.850 179.501 C 85.059 179.494,83.836 179.110,84.124 178.646 C 84.267 178.415,84.184 178.365,83.923 178.525 C 83.679 178.676,83.578 178.960,83.699 179.156 C 83.820 179.352,83.652 179.614,83.326 179.740 C 82.999 179.865,82.732 180.167,82.732 180.412 C 82.732 180.656,82.391 181.148,81.973 181.506 C 81.526 181.889,81.214 182.625,81.214 183.298 C 81.214 183.926,81.056 184.440,80.862 184.440 C 80.668 184.440,80.241 184.709,79.913 185.037 C 79.371 185.579,79.317 185.579,79.317 185.037 C 79.317 184.709,79.146 184.440,78.937 184.440 C 78.729 184.440,78.592 184.568,78.635 184.725 C 79.066 186.324,77.518 189.526,76.706 188.714 C 76.314 188.323,76.078 188.275,75.981 188.566 C 75.901 188.804,75.680 188.903,75.489 188.785 C 74.936 188.442,75.088 188.994,75.721 189.628 C 76.040 189.946,76.595 190.104,76.955 189.979 C 77.563 189.768,77.562 189.788,76.945 190.269 C 76.210 190.841,76.067 191.854,76.670 192.226 C 76.884 192.358,77.012 192.240,76.954 191.964 C 76.897 191.687,77.076 191.508,77.353 191.565 C 77.629 191.623,77.754 191.506,77.631 191.307 C 77.508 191.107,77.573 190.842,77.776 190.716 C 77.979 190.591,78.057 190.259,77.950 189.980 C 77.699 189.324,78.883 188.133,79.537 188.384 C 80.226 188.649,81.454 186.516,81.788 184.472 C 81.938 183.550,82.408 182.440,82.832 182.005 C 83.256 181.570,83.483 181.428,83.335 181.689 C 82.991 182.298,83.282 182.288,84.554 181.647 C 85.118 181.363,86.568 181.019,87.777 180.882 C 91.162 180.501,92.773 179.295,93.524 176.580 C 94.380 173.486,94.522 173.320,96.691 172.880 C 97.836 172.647,99.205 172.019,100.030 171.347 C 103.812 168.268,103.891 168.172,104.165 166.317 C 104.419 164.606,105.229 163.188,105.954 163.188 C 106.137 163.188,106.800 162.633,107.425 161.954 C 108.869 160.390,109.065 160.190,110.441 158.889 C 111.153 158.215,111.593 157.404,111.622 156.707 C 111.648 156.097,111.713 155.427,111.765 155.218 C 111.817 155.009,111.881 154.686,111.907 154.500 C 111.933 154.314,112.381 154.055,112.903 153.924 C 113.425 153.793,113.852 153.508,113.852 153.291 C 113.852 153.074,114.045 153.016,114.281 153.161 C 114.543 153.324,114.635 153.222,114.518 152.899 C 114.413 152.609,114.152 152.409,113.938 152.454 C 113.719 152.500,113.643 152.180,113.765 151.715 C 113.971 150.926,113.991 150.923,114.292 151.633 C 114.594 152.347,114.601 152.347,114.513 151.644 C 114.405 150.786,113.872 150.544,113.127 151.015 M289.182 165.076 C 289.669 165.384,289.642 165.518,288.992 166.020 C 288.503 166.398,288.449 166.532,288.839 166.397 C 289.170 166.283,289.664 166.457,289.936 166.785 C 290.355 167.289,290.335 167.343,289.807 167.141 C 289.449 167.003,289.184 167.090,289.184 167.344 C 289.184 167.588,289.349 167.685,289.550 167.561 C 289.751 167.436,290.258 167.677,290.676 168.096 C 291.386 168.805,291.465 168.813,291.855 168.204 C 292.217 167.638,292.249 167.664,292.092 168.406 C 291.972 168.972,292.091 169.260,292.445 169.260 C 293.171 169.260,293.120 169.902,292.361 170.327 C 291.367 170.884,292.368 171.227,295.085 171.262 C 297.839 171.297,298.375 171.036,297.316 170.177 C 296.914 169.850,296.798 169.691,297.059 169.823 C 297.813 170.206,297.617 168.952,296.859 168.546 C 296.488 168.348,295.645 168.223,294.985 168.268 C 294.325 168.314,293.871 168.214,293.974 168.047 C 294.145 167.771,293.834 167.704,291.766 167.571 C 291.039 167.524,290.340 166.983,291.006 166.983 C 291.563 166.983,291.156 165.800,290.387 165.180 C 290.063 164.919,289.532 164.708,289.206 164.712 C 288.688 164.717,288.685 164.762,289.182 165.076 M300.413 172.368 C 300.463 173.059,300.519 173.810,300.537 174.038 C 300.555 174.265,300.996 174.646,301.518 174.884 C 302.233 175.209,302.467 175.606,302.467 176.493 C 302.467 177.286,302.918 178.222,303.846 179.355 C 304.605 180.281,305.502 181.531,305.839 182.134 C 306.880 183.993,309.439 187.001,310.436 187.536 C 310.958 187.816,311.556 188.179,311.765 188.343 C 311.973 188.507,312.486 188.877,312.903 189.166 C 313.612 189.657,313.668 190.169,313.744 196.976 C 313.816 203.473,313.898 204.315,314.503 204.759 C 315.131 205.220,315.188 205.087,315.281 202.913 C 315.336 201.624,315.568 200.204,315.797 199.758 C 316.048 199.268,316.110 198.215,315.954 197.101 C 315.812 196.086,315.615 193.463,315.515 191.271 C 315.316 186.879,315.036 186.344,312.926 186.330 C 310.685 186.315,307.468 182.458,306.656 178.814 C 305.875 175.308,305.730 175.020,304.522 174.561 C 303.739 174.263,303.665 174.085,303.979 173.260 C 304.243 172.567,304.220 172.328,303.896 172.394 C 303.651 172.445,303.442 172.235,303.433 171.929 C 303.421 171.555,302.906 171.329,301.868 171.242 C 300.329 171.113,300.322 171.119,300.413 172.368 M116.543 176.106 C 114.590 176.388,113.608 177.386,113.261 179.439 C 112.988 181.060,111.777 183.891,111.208 184.243 C 110.992 184.376,110.816 185.190,110.816 186.052 C 110.816 189.371,113.786 191.720,117.394 191.253 C 118.472 191.114,120.087 191.022,120.983 191.049 C 122.414 191.093,122.598 191.006,122.501 190.331 C 122.366 189.390,120.562 189.155,117.602 189.692 C 114.560 190.245,113.464 189.306,113.496 186.172 C 113.527 183.236,115.223 178.620,116.336 178.445 C 116.744 178.381,117.419 178.171,117.837 177.977 C 118.254 177.784,119.450 177.579,120.493 177.522 C 122.060 177.437,122.410 177.287,122.500 176.660 C 122.619 175.822,120.117 175.589,116.543 176.106 M271.364 182.088 C 270.016 183.527,271.796 184.010,275.570 183.231 C 278.472 182.631,279.456 183.531,279.150 186.505 C 278.868 189.232,278.451 189.510,275.422 188.982 C 272.073 188.399,271.048 188.638,273.055 189.535 C 278.734 192.071,282.937 188.467,280.284 183.336 C 279.329 181.490,272.782 180.574,271.364 182.088 M75.274 189.998 C 75.408 190.237,75.262 190.531,74.950 190.650 C 74.638 190.770,74.381 191.342,74.377 191.924 C 74.374 192.647,74.271 192.820,74.051 192.473 C 73.808 192.091,73.676 192.170,73.513 192.795 C 73.393 193.252,73.128 193.521,72.924 193.395 C 71.721 192.652,72.896 201.349,74.271 203.376 C 75.094 204.588,75.176 205.076,75.109 208.338 L 75.035 211.954 77.460 212.065 C 79.773 212.170,79.846 212.146,79.032 211.568 C 78.562 211.235,78.007 211.067,77.798 211.196 C 77.590 211.325,77.406 211.036,77.390 210.554 C 77.374 210.072,77.285 209.336,77.192 208.918 C 77.098 208.501,76.917 207.220,76.790 206.072 C 76.662 204.924,76.435 203.814,76.284 203.605 C 76.134 203.397,75.803 202.374,75.549 201.333 C 75.294 200.292,74.920 199.241,74.717 198.996 C 74.345 198.547,74.401 197.095,74.818 196.395 C 74.942 196.186,74.996 195.716,74.937 195.351 C 74.878 194.986,74.992 194.687,75.189 194.687 C 75.400 194.687,75.380 194.372,75.142 193.928 C 74.854 193.389,74.854 193.169,75.142 193.169 C 75.426 193.169,75.430 192.948,75.156 192.436 C 74.858 191.879,74.913 191.555,75.384 191.084 C 75.886 190.582,75.911 190.378,75.518 190.014 C 75.181 189.702,75.106 189.698,75.274 189.998 M99.897 209.503 C 99.422 209.693,98.938 210.100,98.820 210.407 C 98.554 211.100,94.844 211.908,93.007 211.674 C 92.261 211.579,90.797 211.623,89.753 211.772 C 88.372 211.969,89.255 212.057,92.994 212.094 C 97.446 212.137,98.330 212.043,99.620 211.385 C 101.470 210.443,102.173 210.432,102.989 211.333 C 104.488 212.989,104.935 217.583,103.696 218.596 C 103.313 218.909,102.859 219.507,102.688 219.924 C 102.155 221.225,102.424 284.754,102.964 285.199 C 104.872 286.772,104.774 293.381,102.826 294.598 C 101.848 295.209,101.719 300.930,102.665 301.715 C 103.163 302.128,103.170 302.305,102.717 302.997 C 102.347 303.561,102.294 304.077,102.538 304.736 C 102.938 305.817,102.810 310.057,102.377 310.057 C 102.218 310.057,102.087 310.256,102.087 310.500 C 102.087 310.743,102.200 310.830,102.337 310.693 C 102.474 310.555,102.820 310.636,103.105 310.873 C 103.512 311.211,103.574 311.175,103.395 310.708 C 103.210 310.227,103.389 310.149,104.335 310.298 L 105.503 310.482 105.503 305.953 C 105.503 302.661,105.674 300.970,106.131 299.763 C 106.700 298.257,106.762 294.230,106.795 256.546 L 106.831 214.991 105.585 212.484 C 104.013 209.323,102.421 208.489,99.897 209.503 M287.695 211.908 C 286.879 212.273,286.620 212.903,287.287 212.903 C 287.495 212.903,287.646 213.031,287.621 213.188 C 287.596 213.344,287.596 213.885,287.621 214.390 C 287.686 215.718,288.215 214.980,288.226 213.545 L 288.235 212.334 295.446 212.144 C 302.533 211.958,302.588 211.950,298.672 211.691 C 293.619 211.357,288.714 211.454,287.695 211.908 M124.668 282.081 C 121.690 284.211,121.102 289.266,123.638 290.928 C 124.133 291.252,124.711 292.017,124.924 292.628 C 125.637 294.672,125.973 293.769,125.889 290.038 C 125.844 288.003,125.955 285.996,126.136 285.579 C 126.318 285.161,126.509 284.385,126.561 283.854 C 126.612 283.323,126.787 282.470,126.949 281.959 C 127.206 281.150,127.169 281.093,126.657 281.518 C 126.317 281.800,126.015 281.850,125.938 281.636 C 125.866 281.433,125.294 281.634,124.668 282.081 M261.486 296.823 C 261.478 299.097,260.792 299.746,259.056 299.118 C 258.377 298.873,257.150 298.685,256.330 298.701 L 254.839 298.731 256.566 299.365 C 257.516 299.714,258.813 300.377,259.448 300.838 L 260.604 301.676 262.180 300.115 C 264.034 298.279,264.543 295.256,262.998 295.256 C 262.581 295.256,262.236 295.470,262.233 295.731 C 262.229 296.047,262.105 296.015,261.860 295.636 C 261.593 295.223,261.490 295.549,261.486 296.823 M105.797 315.961 C 105.512 316.246,105.896 317.647,106.260 317.647 C 106.418 317.647,106.783 317.358,107.069 317.005 C 107.423 316.569,107.438 316.454,107.116 316.648 C 106.817 316.827,106.641 316.714,106.641 316.341 C 106.641 315.753,106.202 315.556,105.797 315.961 M107.961 316.873 C 108.082 317.069,107.820 317.423,107.379 317.659 C 106.937 317.895,106.691 318.202,106.830 318.342 C 107.266 318.779,108.769 318.652,109.249 318.138 C 109.823 317.524,109.211 317.480,108.040 318.052 C 107.281 318.423,107.287 318.395,108.111 317.731 C 108.898 317.096,108.931 316.974,108.376 316.761 C 108.020 316.624,107.837 316.674,107.961 316.873 M120.637 317.318 C 120.141 317.458,118.062 317.588,116.019 317.609 L 112.303 317.647 112.392 319.153 C 112.443 320.008,112.705 320.744,113.001 320.858 C 113.287 320.967,113.396 321.258,113.245 321.504 C 113.058 321.806,113.174 321.872,113.600 321.708 C 113.947 321.575,114.232 321.589,114.232 321.739 C 114.232 322.114,118.863 322.084,119.450 321.704 C 119.711 321.535,119.924 320.891,119.924 320.272 C 119.924 318.496,118.035 318.537,190.323 318.742 C 228.102 318.849,262.941 318.860,267.742 318.766 C 272.543 318.672,278.978 318.596,282.042 318.596 C 287.486 318.596,287.617 318.577,287.774 317.758 C 287.902 317.088,287.813 316.985,287.326 317.243 C 286.991 317.420,286.091 317.507,285.325 317.437 C 282.593 317.186,121.522 317.070,120.637 317.318 " stroke="none" fill="#ccccbc" fill-rule="evenodd"></path><path id="path3" d="M202.277 75.901 C 201.964 76.104,199.317 76.306,196.395 76.350 L 191.082 76.431 196.584 76.640 C 199.611 76.756,202.301 76.988,202.562 77.157 C 202.836 77.335,203.036 77.295,203.036 77.062 C 203.036 76.841,202.737 76.650,202.372 76.636 C 201.863 76.618,201.907 76.532,202.562 76.269 C 203.031 76.080,203.416 75.835,203.416 75.724 C 203.416 75.414,202.908 75.493,202.277 75.901 M185.674 78.050 C 185.413 78.155,185.199 78.840,185.199 79.571 C 185.199 80.617,184.912 81.154,183.845 82.099 C 183.099 82.759,182.226 83.854,181.904 84.533 C 181.376 85.647,181.156 85.769,179.676 85.769 C 178.772 85.769,177.926 85.942,177.795 86.154 C 177.664 86.366,177.398 86.442,177.203 86.322 C 177.009 86.201,176.850 86.284,176.850 86.505 C 176.850 86.726,176.669 86.907,176.448 86.907 C 176.227 86.907,176.145 86.747,176.267 86.550 C 176.388 86.354,176.170 86.218,175.783 86.247 C 175.396 86.276,175.079 86.514,175.079 86.777 C 175.079 87.039,175.211 87.172,175.372 87.072 C 175.533 86.973,175.841 87.194,176.056 87.563 C 176.317 88.010,176.451 88.062,176.459 87.717 C 176.466 87.387,176.747 87.270,177.230 87.396 C 177.723 87.525,177.989 87.408,177.989 87.061 C 177.989 86.684,178.476 86.528,179.651 86.528 C 181.133 86.528,181.428 86.373,182.362 85.104 C 182.939 84.322,183.984 83.135,184.685 82.467 C 185.667 81.531,185.958 80.942,185.958 79.893 C 185.958 78.838,186.149 78.457,186.812 78.190 C 187.585 77.879,187.594 77.848,186.907 77.853 C 186.490 77.856,185.935 77.945,185.674 78.050 M205.882 78.070 C 206.869 78.325,207.197 78.868,207.208 80.266 C 207.215 81.194,207.499 81.566,208.749 82.279 C 209.592 82.761,210.428 83.529,210.607 83.987 C 210.986 84.956,212.400 86.528,212.892 86.528 C 213.079 86.528,213.342 86.875,213.477 87.299 C 213.848 88.469,215.099 89.464,216.538 89.734 C 217.965 90.001,218.141 90.382,218.307 93.545 C 218.393 95.198,218.541 95.504,219.462 95.944 C 220.042 96.221,220.933 97.106,221.441 97.911 C 221.989 98.780,222.717 99.425,223.232 99.498 C 223.794 99.577,224.343 100.121,224.794 101.044 C 225.473 102.432,225.537 102.465,227.451 102.398 L 229.412 102.330 227.609 102.188 C 225.918 102.054,225.806 101.979,225.806 100.974 C 225.806 99.706,225.116 99.046,223.432 98.705 C 222.417 98.499,222.180 98.258,222.083 97.330 C 221.946 96.034,221.109 95.256,219.852 95.256 C 219.370 95.256,218.969 95.128,218.962 94.972 C 218.735 90.264,218.368 89.368,216.520 89.022 C 215.518 88.834,215.077 88.465,214.541 87.369 C 214.162 86.593,213.401 85.744,212.849 85.483 C 212.278 85.212,211.735 84.559,211.586 83.965 C 211.228 82.531,210.301 81.594,209.239 81.594 C 208.626 81.594,208.349 81.375,208.349 80.892 C 208.349 79.072,207.601 77.960,206.348 77.916 C 205.637 77.892,205.442 77.956,205.882 78.070 M237.202 113.650 C 236.825 114.104,236.939 114.389,237.820 115.198 C 238.414 115.744,238.686 116.081,238.425 115.947 C 238.164 115.814,237.951 115.886,237.951 116.107 C 237.951 116.328,238.102 116.509,238.286 116.509 C 238.808 116.509,239.048 117.916,238.602 118.362 C 238.019 118.945,238.720 119.116,243.209 119.491 C 247.361 119.837,247.645 119.981,248.073 121.956 C 248.348 123.223,250.162 124.475,251.728 124.477 C 252.567 124.478,252.874 124.718,253.188 125.616 C 253.406 126.242,253.730 126.664,253.908 126.554 C 254.316 126.302,255.028 127.600,255.028 128.594 C 255.028 129.490,257.118 131.357,257.820 131.088 C 258.091 130.984,258.770 131.072,259.327 131.284 C 260.120 131.586,260.342 131.557,260.342 131.151 C 260.342 130.498,259.509 130.171,257.851 130.171 C 256.509 130.171,256.358 129.945,256.083 127.527 C 256.006 126.843,255.655 126.499,254.783 126.250 C 253.890 125.995,253.533 125.633,253.370 124.820 C 253.185 123.896,252.922 123.695,251.631 123.488 C 249.922 123.215,249.235 122.585,249.041 121.116 C 248.849 119.655,248.640 119.555,245.254 119.294 C 242.435 119.077,242.175 118.988,242.203 118.257 C 242.271 116.435,242.113 115.560,241.804 116.047 C 241.633 116.318,241.211 116.425,240.857 116.289 C 240.505 116.154,239.921 116.277,239.559 116.561 C 238.980 117.015,238.956 117.006,239.359 116.487 C 239.733 116.008,239.683 115.798,239.095 115.374 C 238.697 115.087,238.475 114.684,238.603 114.477 C 238.739 114.257,238.574 114.202,238.203 114.345 C 237.783 114.506,237.571 114.392,237.571 114.007 C 237.571 113.666,237.751 113.539,238.009 113.698 C 238.281 113.866,238.344 113.803,238.177 113.531 C 237.830 112.970,237.759 112.979,237.202 113.650 M150.062 116.040 C 149.532 116.398,149.112 118.027,149.549 118.027 C 150.700 118.027,149.137 119.131,147.453 119.508 C 145.618 119.919,145.362 120.103,144.852 121.378 C 144.509 122.235,143.860 122.993,143.205 123.300 C 142.611 123.579,141.875 123.931,141.568 124.081 C 141.262 124.232,140.736 124.853,140.399 125.461 C 140.016 126.152,139.388 126.637,138.720 126.755 C 137.649 126.946,137.434 127.194,136.671 129.127 C 136.387 129.848,135.986 130.171,135.378 130.171 C 134.215 130.171,133.586 130.849,133.586 132.104 C 133.586 133.166,133.008 133.586,131.544 133.586 C 130.407 133.586,129.791 134.280,129.791 135.560 C 129.791 136.407,129.618 136.624,128.937 136.628 C 127.586 136.637,126.974 137.233,126.555 138.949 C 126.207 140.371,126.001 140.591,124.657 140.967 C 123.161 141.386,123.148 141.407,122.833 143.746 C 122.534 145.961,122.469 146.077,121.743 145.689 C 121.183 145.389,121.042 145.390,121.229 145.693 C 121.621 146.327,121.029 146.192,120.150 145.446 C 119.446 144.848,119.418 144.847,119.868 145.429 C 120.144 145.785,120.271 146.236,120.150 146.430 C 120.030 146.625,120.452 146.860,121.087 146.954 C 122.368 147.142,122.693 146.764,123.101 144.617 C 123.392 143.085,124.322 141.935,125.270 141.935 C 126.050 141.935,127.291 140.313,127.651 138.824 C 127.794 138.233,128.337 137.590,128.936 137.303 C 129.507 137.029,130.206 136.321,130.489 135.730 C 130.773 135.138,131.580 134.414,132.286 134.119 C 132.991 133.825,133.822 133.093,134.133 132.492 C 134.443 131.892,135.296 131.048,136.027 130.616 C 136.758 130.184,137.463 129.410,137.592 128.895 C 137.738 128.314,138.283 127.777,139.027 127.479 C 139.688 127.216,140.690 126.457,141.256 125.792 C 141.821 125.127,142.846 124.353,143.533 124.072 C 145.061 123.447,145.454 123.078,146.269 121.502 C 146.905 120.271,147.657 119.794,149.620 119.374 C 150.492 119.187,151.406 115.704,150.569 115.755 C 150.517 115.759,150.289 115.887,150.062 116.040 M216.167 124.004 C 216.290 124.787,216.445 125.483,216.511 125.552 C 216.849 125.902,218.597 125.834,218.607 125.470 C 218.619 125.027,219.370 126.145,219.401 126.652 C 219.411 126.813,219.618 127.191,219.861 127.492 C 220.131 127.826,220.143 127.944,219.892 127.794 C 219.666 127.658,219.481 127.789,219.481 128.083 C 219.481 128.378,219.624 128.531,219.798 128.424 C 219.972 128.316,220.114 128.419,220.114 128.653 C 220.114 128.886,220.285 128.972,220.493 128.843 C 220.702 128.714,220.873 128.770,220.873 128.968 C 220.873 129.166,221.086 129.320,221.347 129.310 C 223.211 129.241,223.559 129.407,223.150 130.171 C 222.842 130.747,222.861 130.931,223.231 130.936 C 223.628 130.940,223.627 131.000,223.230 131.252 C 222.892 131.466,223.206 131.745,224.250 132.155 C 225.080 132.481,225.855 132.652,225.973 132.535 C 226.294 132.213,226.229 129.026,225.901 129.077 C 224.874 129.239,223.142 128.972,223.323 128.679 C 223.444 128.485,223.397 128.236,223.219 128.126 C 223.042 128.017,222.973 127.407,223.067 126.772 C 223.203 125.845,223.097 125.610,222.529 125.585 C 220.026 125.473,219.574 125.247,219.497 124.067 C 219.471 123.667,219.428 123.169,219.402 122.960 C 219.376 122.751,218.587 122.581,217.649 122.581 L 215.943 122.581 216.167 124.004 M263.757 133.696 C 264.360 133.999,264.750 134.559,264.828 135.231 C 264.939 136.186,266.344 137.884,267.980 139.039 C 268.320 139.279,268.886 140.324,269.238 141.360 C 270.078 143.834,270.437 144.213,271.941 144.213 C 272.633 144.213,273.325 144.415,273.478 144.662 C 273.668 144.969,273.839 144.880,274.022 144.377 C 274.415 143.298,273.721 142.694,272.090 142.694 C 270.796 142.694,270.623 142.578,270.398 141.552 C 269.939 139.466,269.022 138.131,267.520 137.365 C 266.178 136.680,266.034 136.465,266.034 135.137 C 266.034 133.561,265.622 133.202,263.821 133.212 L 262.808 133.218 263.757 133.696 M153.326 144.877 C 153.330 145.868,153.463 146.474,153.623 146.222 C 153.943 145.719,155.598 145.705,155.598 146.206 C 155.598 146.378,155.835 146.299,156.125 146.030 C 156.415 145.761,156.543 145.455,156.410 145.351 C 155.924 144.971,155.932 143.716,156.422 143.405 C 156.736 143.206,156.246 143.083,155.123 143.080 L 153.321 143.074 153.326 144.877 M275.076 147.200 C 275.353 147.375,275.670 148.193,275.780 149.017 C 275.935 150.167,276.272 150.714,277.236 151.374 C 277.926 151.847,278.958 152.908,279.529 153.733 C 280.140 154.615,280.975 155.317,281.555 155.438 C 283.167 155.773,283.562 156.115,284.207 157.734 C 284.745 159.086,284.947 159.257,285.863 159.131 C 286.453 159.050,286.907 159.168,286.907 159.402 C 286.907 159.630,287.063 159.721,287.254 159.603 C 287.445 159.485,287.688 159.603,287.793 159.865 C 287.931 160.206,287.994 160.213,288.016 159.890 C 288.032 159.641,287.882 159.337,287.683 159.213 C 287.483 159.090,287.416 158.738,287.533 158.432 C 287.651 158.125,287.548 157.875,287.305 157.875 C 287.061 157.875,286.968 158.046,287.097 158.254 C 287.226 158.463,287.150 158.634,286.929 158.634 C 286.708 158.634,286.528 158.453,286.528 158.232 C 286.528 158.011,286.372 157.926,286.182 158.043 C 285.547 158.436,284.630 157.802,284.630 156.970 C 284.630 155.668,283.572 154.460,282.426 154.453 C 281.060 154.446,280.566 154.082,280.259 152.858 C 279.955 151.650,279.497 151.237,278.083 150.899 C 277.199 150.688,277.040 150.454,277.040 149.360 C 277.040 147.446,276.699 146.868,275.576 146.875 C 274.887 146.879,274.730 146.980,275.076 147.200 M146.495 151.708 C 146.499 152.714,146.632 153.305,146.796 153.046 C 146.959 152.790,147.511 152.601,148.024 152.625 C 149.592 152.699,149.890 152.585,149.664 151.995 C 149.544 151.683,149.290 151.524,149.100 151.641 C 148.910 151.759,148.869 152.040,149.009 152.267 C 149.159 152.510,149.087 152.570,148.833 152.413 C 148.383 152.135,148.922 150.778,149.715 150.196 C 149.924 150.042,149.284 149.914,148.292 149.911 L 146.490 149.905 146.495 151.708 M109.772 153.952 C 109.511 154.057,109.295 154.684,109.292 155.345 C 109.285 156.869,108.971 157.350,107.659 157.849 C 107.020 158.092,106.393 158.756,106.067 159.536 C 105.720 160.367,105.186 160.908,104.558 161.066 C 103.047 161.445,102.087 162.638,102.087 164.137 C 102.087 164.867,101.912 165.465,101.698 165.465 C 101.484 165.465,101.147 165.892,100.949 166.413 C 100.750 166.935,100.029 167.698,99.345 168.109 C 97.555 169.185,96.432 170.147,96.412 170.623 C 96.403 170.851,95.709 171.243,94.871 171.494 C 93.594 171.876,93.212 172.241,92.520 173.736 C 90.862 177.318,88.328 178.985,85.507 178.351 C 84.095 178.034,83.380 178.907,84.751 179.274 C 88.312 180.229,92.050 178.106,92.767 174.720 C 93.059 173.339,94.301 172.143,95.846 171.756 C 96.448 171.605,97.661 170.816,98.542 170.004 C 99.424 169.191,100.576 168.419,101.102 168.286 C 102.143 168.025,102.294 167.708,102.679 164.983 C 102.927 163.229,104.132 161.684,105.269 161.662 C 105.502 161.657,106.173 160.974,106.761 160.144 C 107.348 159.313,108.032 158.628,108.279 158.622 C 109.030 158.602,109.926 157.019,110.151 155.313 C 110.268 154.426,110.338 153.714,110.305 153.730 C 110.273 153.747,110.033 153.846,109.772 153.952 M145.846 170.693 C 145.839 171.053,146.024 171.588,146.257 171.883 C 146.572 172.283,146.559 172.460,146.205 172.579 C 145.507 172.814,145.627 173.383,146.352 173.276 C 146.694 173.226,147.207 172.867,147.491 172.478 C 147.959 171.839,148.187 171.971,148.043 172.799 C 148.013 172.971,148.167 173.002,148.384 172.867 C 148.601 172.733,148.693 172.484,148.587 172.313 C 148.482 172.142,148.707 171.921,149.087 171.822 C 149.467 171.723,149.779 171.339,149.779 170.970 C 149.779 170.356,149.739 170.352,149.326 170.918 C 148.752 171.702,148.475 171.701,148.320 170.916 C 148.142 170.014,145.861 169.809,145.846 170.693 M147.932 171.335 C 148.043 171.446,147.935 171.537,147.691 171.537 C 147.448 171.537,147.249 171.783,147.249 172.084 C 147.249 172.385,147.094 172.726,146.904 172.843 C 146.715 172.960,146.650 172.714,146.759 172.297 C 146.870 171.872,146.771 171.537,146.534 171.537 C 146.301 171.537,146.110 171.376,146.110 171.179 C 146.110 170.825,147.545 170.948,147.932 171.335 M303.601 172.481 C 303.859 172.791,303.973 173.298,303.854 173.607 C 303.571 174.345,304.307 174.783,304.872 174.214 C 305.208 173.875,305.172 173.823,304.721 173.994 C 304.257 174.171,304.146 173.972,304.209 173.068 C 304.265 172.255,304.119 171.917,303.711 171.917 C 303.242 171.917,303.222 172.023,303.601 172.481 M305.496 175.134 C 305.751 175.442,306.268 177.072,306.644 178.757 C 307.449 182.373,310.671 186.314,312.833 186.330 C 313.421 186.334,314.247 186.523,314.670 186.749 C 315.321 187.097,315.418 187.054,315.306 186.464 C 315.207 185.946,314.770 185.739,313.594 185.653 C 312.022 185.539,311.402 185.098,310.632 183.546 C 310.409 183.098,309.872 182.681,309.437 182.618 C 308.318 182.457,307.837 181.249,307.630 178.088 C 307.418 174.855,307.288 174.573,306.003 174.573 C 305.188 174.573,305.106 174.664,305.496 175.134 M120.493 177.522 C 119.450 177.579,118.254 177.784,117.837 177.977 C 117.419 178.171,116.744 178.381,116.336 178.445 C 115.223 178.620,113.527 183.236,113.496 186.172 C 113.464 189.327,114.554 190.247,117.660 189.682 C 118.787 189.477,120.355 189.371,121.144 189.447 C 121.934 189.522,122.581 189.451,122.581 189.289 C 122.581 188.973,121.405 188.898,117.909 188.991 C 114.527 189.081,113.931 187.821,115.056 182.951 L 115.500 181.025 117.997 180.983 C 119.370 180.960,120.878 180.972,121.349 181.010 C 122.353 181.091,122.677 180.447,122.511 178.693 L 122.391 177.419 120.493 177.522 M83.112 178.770 C 83.112 178.991,82.915 179.050,82.674 178.901 C 82.411 178.739,82.338 178.796,82.492 179.045 C 82.633 179.273,82.446 179.636,82.076 179.851 C 81.595 180.132,81.557 180.246,81.945 180.254 C 82.323 180.262,82.217 180.551,81.594 181.214 C 81.104 181.736,80.818 182.163,80.959 182.163 C 81.340 182.163,82.732 180.699,82.732 180.297 C 82.732 180.106,82.931 179.883,83.174 179.802 C 83.703 179.626,83.952 178.368,83.458 178.368 C 83.268 178.368,83.112 178.549,83.112 178.770 M79.093 183.134 C 79.801 183.652,79.497 184.086,78.616 183.816 C 78.088 183.654,78.093 183.691,78.653 184.051 C 79.018 184.286,79.317 184.738,79.317 185.055 C 79.317 185.564,79.388 185.562,79.913 185.037 C 80.241 184.709,80.668 184.440,80.862 184.440 C 81.056 184.440,81.214 184.269,81.214 184.061 C 81.214 183.852,80.926 183.681,80.573 183.681 C 80.012 183.681,80.024 183.609,80.668 183.113 C 81.357 182.581,81.311 182.550,79.953 182.623 C 78.765 182.687,78.609 182.780,79.093 183.134 M275.845 183.105 C 275.745 183.205,274.734 183.442,273.600 183.630 C 271.543 183.971,271.547 183.972,274.835 184.016 C 278.609 184.067,278.526 184.006,278.219 186.528 L 277.989 188.425 276.091 188.617 L 274.194 188.810 276.074 189.095 C 278.372 189.444,278.837 189.077,279.169 186.651 C 279.516 184.116,277.251 181.699,275.845 183.105 M77.902 186.846 C 77.854 187.503,77.641 188.098,77.427 188.169 C 77.214 188.240,77.040 188.492,77.040 188.728 C 77.040 188.986,77.248 188.935,77.562 188.601 C 78.195 187.928,78.672 186.073,78.275 185.829 C 78.117 185.732,77.950 186.190,77.902 186.846 M315.771 188.779 C 315.313 189.330,315.385 192.539,315.961 197.285 C 316.118 198.579,316.055 199.466,315.789 199.733 C 315.031 200.491,315.249 205.392,316.034 205.243 C 316.491 205.156,316.729 204.703,316.798 203.792 C 316.853 203.063,317.164 201.471,317.490 200.254 C 318.794 195.388,317.492 186.705,315.771 188.779 M72.486 192.432 C 72.486 192.653,72.272 192.726,72.011 192.594 C 71.750 192.462,71.869 192.623,72.276 192.952 C 73.047 193.578,73.922 193.199,73.455 192.443 C 73.128 191.915,72.486 191.908,72.486 192.432 M72.032 194.006 C 71.939 194.276,71.899 195.266,71.942 196.205 C 71.985 197.144,72.040 198.993,72.064 200.314 C 72.102 202.463,72.229 202.838,73.278 203.886 C 74.410 205.019,74.449 205.171,74.449 208.409 C 74.449 210.253,74.584 211.844,74.749 211.946 C 75.610 212.478,75.174 204.707,74.268 203.371 C 73.075 201.613,72.781 200.416,72.672 196.854 C 72.584 193.965,72.371 193.019,72.032 194.006 M99.848 211.216 C 98.184 211.938,98.580 212.358,100.369 211.768 C 102.016 211.225,102.832 211.703,102.873 213.234 C 102.888 213.783,103.036 214.573,103.203 214.991 C 103.397 215.477,103.250 216.403,102.796 217.566 C 102.406 218.565,102.104 220.017,102.125 220.792 L 102.164 222.201 102.506 220.743 C 102.695 219.941,103.196 219.001,103.621 218.656 C 105.458 217.158,103.920 210.588,101.744 210.641 C 101.411 210.649,100.558 210.908,99.848 211.216 M288.372 212.239 C 288.343 212.291,288.286 212.962,288.246 213.729 C 288.159 215.367,289.282 216.036,289.967 214.756 C 290.184 214.351,290.521 214.120,290.717 214.241 C 290.915 214.363,290.967 214.185,290.835 213.840 C 290.644 213.343,290.532 213.320,290.276 213.725 C 290.099 214.004,289.952 214.074,289.949 213.882 C 289.946 213.690,290.226 213.220,290.571 212.838 C 291.169 212.178,291.132 212.144,289.812 212.144 C 289.049 212.144,288.401 212.187,288.372 212.239 M304.532 212.742 C 304.127 213.070,304.051 213.200,304.364 213.030 C 304.677 212.860,305.873 212.617,307.021 212.489 L 309.108 212.256 307.188 212.200 C 305.936 212.164,305.012 212.352,304.532 212.742 M295.548 213.937 C 296.230 214.022,297.254 214.020,297.825 213.933 C 298.395 213.847,297.837 213.778,296.584 213.780 C 295.332 213.782,294.865 213.853,295.548 213.937 M291.461 214.421 C 291.461 214.630,291.813 214.801,292.243 214.801 C 292.672 214.801,292.918 214.630,292.789 214.421 C 292.660 214.213,292.309 214.042,292.008 214.042 C 291.707 214.042,291.461 214.213,291.461 214.421 M102.180 256.610 C 102.090 283.832,102.107 284.614,102.846 286.338 C 103.756 288.460,103.819 290.857,103.016 292.778 C 102.264 294.578,102.506 295.370,103.393 294.015 C 104.805 291.861,104.536 286.416,102.959 285.199 C 102.565 284.896,102.447 279.202,102.369 256.736 L 102.272 228.653 102.180 256.610 M126.929 281.999 C 126.814 282.185,126.669 282.913,126.606 283.616 C 126.542 284.320,126.348 285.127,126.174 285.409 C 125.098 287.149,125.756 291.709,127.024 291.306 C 127.737 291.080,127.898 290.658,127.908 288.994 C 127.911 288.577,128.095 287.672,128.318 286.984 C 129.351 283.797,128.253 279.857,126.929 281.999 M261.167 296.846 C 261.101 298.612,261.090 298.627,259.677 298.758 C 258.262 298.889,258.260 298.891,259.330 299.209 C 260.889 299.673,261.569 298.853,261.381 296.736 L 261.233 295.066 261.167 296.846 M102.093 301.992 C 102.109 302.750,102.742 303.287,102.957 302.725 C 103.076 302.415,103.071 302.059,102.947 301.935 C 102.628 301.615,102.086 301.652,102.093 301.992 M102.120 306.831 C 102.105 308.923,102.213 309.690,102.467 309.298 C 102.915 308.604,102.915 305.597,102.467 304.554 C 102.247 304.043,102.134 304.787,102.120 306.831 M120.671 318.864 C 120.158 319.054,119.924 319.493,119.924 320.269 C 119.924 320.890,119.711 321.535,119.450 321.704 C 118.863 322.084,114.232 322.114,114.232 321.739 C 114.232 321.589,113.968 321.567,113.647 321.690 C 113.292 321.827,113.105 321.729,113.172 321.441 C 113.233 321.181,113.069 320.889,112.808 320.794 C 112.531 320.692,112.334 320.929,112.334 321.363 C 112.334 322.313,113.619 322.585,117.535 322.463 C 121.061 322.353,121.442 322.163,121.442 320.512 C 121.442 318.749,121.153 318.786,135.111 318.786 C 148.504 318.786,149.402 318.896,149.593 320.569 L 149.715 321.632 197.533 321.547 C 223.833 321.500,246.461 321.429,247.818 321.389 C 249.175 321.349,251.053 321.406,251.992 321.516 C 259.055 322.341,275.971 322.121,276.601 321.195 C 276.738 320.994,277.403 320.606,278.079 320.333 C 278.754 320.060,279.227 319.707,279.130 319.549 C 279.032 319.391,280.870 319.117,283.214 318.941 C 290.602 318.384,285.060 318.305,272.032 318.782 C 265.208 319.031,259.434 319.118,259.202 318.975 C 258.633 318.623,121.618 318.514,120.671 318.864 " stroke="none" fill="#c4bcac" fill-rule="evenodd"></path></g></svg>