<?xml version="1.0" encoding="utf-8"?>
<!-- Generator: Adobe Illustrator 16.0.0, SVG Export Plug-In . SVG Version: 6.00 Build 0)  -->
<!DOCTYPE svg PUBLIC "-//W3C//DTD SVG 1.1//EN" "http://www.w3.org/Graphics/SVG/1.1/DTD/svg11.dtd">
<svg version="1.1" id="Layer_1" xmlns="http://www.w3.org/2000/svg" xmlns:xlink="http://www.w3.org/1999/xlink" x="0px" y="0px"
	 width="100px" height="100px" viewBox="0 0 100 100" enable-background="new 0 0 100 100" xml:space="preserve">
<g>
	<line fill="none" stroke="#FFFFFF" stroke-width="2" stroke-miterlimit="10" x1="64.167" y1="-284.167" x2="90" y2="-284.167"/>
	<line fill="none" stroke="#FFFFFF" stroke-width="2" stroke-miterlimit="10" x1="64.167" y1="-276" x2="81.333" y2="-276"/>
	<line fill="none" stroke="#FFFFFF" stroke-width="2" stroke-miterlimit="10" x1="64.167" y1="-267.833" x2="90" y2="-267.833"/>
</g>
<g>
	<g>
		<path fill="none" stroke="#FFFFFF" stroke-width="3" stroke-miterlimit="10" d="M219.525,72.595l4.561,7.933
			c2.404-1.385,5.19-2.15,8.166-2.15c9.051,0,16.389,7.313,16.389,16.416h18.755c0-9.103,7.337-16.416,16.385-16.416
			c2.961,0,5.741,0.77,8.135,2.144l9.393-16.351c-4.924-2.824-8.24-8.146-8.24-14.23s3.316-11.391,8.24-14.219l-4.653-8.095
			l-4.739-8.246c-2.394,1.375-5.174,2.187-8.135,2.187c-9.048,0-16.385-7.437-16.385-16.36H248.64c0,8.923-7.338,16.36-16.389,16.36
			c-2.975,0-5.762-0.807-8.166-2.192l-9.393,16.336c4.941,2.821,8.271,8.14,8.271,14.236c0,6.098-3.33,11.416-8.271,14.237
			L219.525,72.595"/>
	</g>
	<path fill="none" stroke="#FFFFFF" stroke-width="3" stroke-miterlimit="10" d="M278.628,50.624
		c0,11.303-9.161,20.459-20.461,20.459c-11.301,0-20.461-9.156-20.461-20.459c0-8.166,4.78-15.212,11.698-18.495
		c1.658-0.79-0.068,8.892,1.798,16.78c1.122,4.742,5.625,4.236,6.801,4.236c1.102,0,5.129-0.923,6.186-5.638
		c1.774-7.935,0.694-16.298,2.288-15.589C273.636,35.104,278.628,42.281,278.628,50.624z"/>
	<path fill="none" stroke="#FFFFFF" stroke-width="3" stroke-miterlimit="10" d="M267.396,94.793h-18.273V68.971
		c0,0,5.27,2.112,9.044,2.112c4.595,0,9.229-2.112,9.229-2.112V94.793z"/>
</g>
<g>
	<line fill="none" stroke="#FFFFFF" stroke-width="3" stroke-miterlimit="10" x1="1.833" y1="19.547" x2="98.167" y2="19.547"/>
	<line fill="none" stroke="#FFFFFF" stroke-width="3" stroke-miterlimit="10" x1="1.833" y1="50" x2="65.85" y2="50"/>
	<line fill="none" stroke="#FFFFFF" stroke-width="3" stroke-miterlimit="10" x1="1.833" y1="80.453" x2="98.167" y2="80.453"/>
</g>
</svg>
